#usda 1.0
(
    "RFC 0011 GI fixture GalleryBleedCheckerHall; generated by tools/quality/gi_fixtures.py, do not edit"
    defaultPrim = "GalleryBleedCheckerHall"
    metersPerUnit = 1
    upAxis = "Z"
)

def Xform "GalleryBleedCheckerHall"
{
    def Scope "Looks"
    {
        def Material "White"
        {
            token outputs:surface.connect = </GalleryBleedCheckerHall/Looks/White/Surface.outputs:surface>

            def Shader "Surface"
            {
                uniform token info:id = "UsdPreviewSurface"
                color3f inputs:diffuseColor = (0.7, 0.7, 0.7)
                color3f inputs:emissiveColor = (0, 0, 0)
                float inputs:ior = 1
                float inputs:metallic = 0
                float inputs:roughness = 1
                token outputs:surface
            }
        }

        def Material "TileRed"
        {
            token outputs:surface.connect = </GalleryBleedCheckerHall/Looks/TileRed/Surface.outputs:surface>

            def Shader "Surface"
            {
                uniform token info:id = "UsdPreviewSurface"
                color3f inputs:diffuseColor = (0.7, 0.1, 0.1)
                color3f inputs:emissiveColor = (0, 0, 0)
                float inputs:ior = 1
                float inputs:metallic = 0
                float inputs:roughness = 1
                token outputs:surface
            }
        }

        def Material "TileBlue"
        {
            token outputs:surface.connect = </GalleryBleedCheckerHall/Looks/TileBlue/Surface.outputs:surface>

            def Shader "Surface"
            {
                uniform token info:id = "UsdPreviewSurface"
                color3f inputs:diffuseColor = (0.1, 0.1, 0.7)
                color3f inputs:emissiveColor = (0, 0, 0)
                float inputs:ior = 1
                float inputs:metallic = 0
                float inputs:roughness = 1
                token outputs:surface
            }
        }
    }

    def Xform "World"
    {
        def Mesh "R_Xn" (
            prepend apiSchemas = ["MaterialBindingAPI"]
        )
        {
            float3[] extent = [(0, 0, 0), (0, 8, 3)]
            int[] faceVertexCounts = [4]
            int[] faceVertexIndices = [0, 1, 2, 3]
            rel material:binding = </GalleryBleedCheckerHall/Looks/White>
            normal3f[] normals = [(1, 0, 0), (1, 0, 0), (1, 0, 0), (1, 0, 0)] (
                interpolation = "faceVarying"
            )
            point3f[] points = [(0, 0, 0), (0, 8, 0), (0, 8, 3), (0, 0, 3)]
            texCoord2f[] primvars:st = [(0, 0), (8, 0), (8, 3), (0, 3)] (
                interpolation = "faceVarying"
            )
            uniform token subdivisionScheme = "none"
        }

        def Mesh "R_Xp" (
            prepend apiSchemas = ["MaterialBindingAPI"]
        )
        {
            float3[] extent = [(8, 0, 0), (8, 8, 3)]
            int[] faceVertexCounts = [4]
            int[] faceVertexIndices = [0, 1, 2, 3]
            rel material:binding = </GalleryBleedCheckerHall/Looks/White>
            normal3f[] normals = [(-1, 0, 0), (-1, 0, 0), (-1, 0, 0), (-1, 0, 0)] (
                interpolation = "faceVarying"
            )
            point3f[] points = [(8, 0, 3), (8, 8, 3), (8, 8, 0), (8, 0, 0)]
            texCoord2f[] primvars:st = [(0, 3), (8, 3), (8, 0), (0, 0)] (
                interpolation = "faceVarying"
            )
            uniform token subdivisionScheme = "none"
        }

        def Mesh "R_Yn" (
            prepend apiSchemas = ["MaterialBindingAPI"]
        )
        {
            float3[] extent = [(0, 0, 0), (8, 0, 3)]
            int[] faceVertexCounts = [4]
            int[] faceVertexIndices = [0, 1, 2, 3]
            rel material:binding = </GalleryBleedCheckerHall/Looks/White>
            normal3f[] normals = [(0, 1, 0), (0, 1, 0), (0, 1, 0), (0, 1, 0)] (
                interpolation = "faceVarying"
            )
            point3f[] points = [(0, 0, 3), (8, 0, 3), (8, 0, 0), (0, 0, 0)]
            texCoord2f[] primvars:st = [(0, 3), (8, 3), (8, 0), (0, 0)] (
                interpolation = "faceVarying"
            )
            uniform token subdivisionScheme = "none"
        }

        def Mesh "R_Yp" (
            prepend apiSchemas = ["MaterialBindingAPI"]
        )
        {
            float3[] extent = [(0, 8, 0), (8, 8, 3)]
            int[] faceVertexCounts = [4]
            int[] faceVertexIndices = [0, 1, 2, 3]
            rel material:binding = </GalleryBleedCheckerHall/Looks/White>
            normal3f[] normals = [(0, -1, 0), (0, -1, 0), (0, -1, 0), (0, -1, 0)] (
                interpolation = "faceVarying"
            )
            point3f[] points = [(0, 8, 0), (8, 8, 0), (8, 8, 3), (0, 8, 3)]
            texCoord2f[] primvars:st = [(0, 0), (8, 0), (8, 3), (0, 3)] (
                interpolation = "faceVarying"
            )
            uniform token subdivisionScheme = "none"
        }

        def Mesh "R_Zp" (
            prepend apiSchemas = ["MaterialBindingAPI"]
        )
        {
            float3[] extent = [(0, 0, 3), (8, 8, 3)]
            int[] faceVertexCounts = [4]
            int[] faceVertexIndices = [0, 1, 2, 3]
            rel material:binding = </GalleryBleedCheckerHall/Looks/White>
            normal3f[] normals = [(0, 0, -1), (0, 0, -1), (0, 0, -1), (0, 0, -1)] (
                interpolation = "faceVarying"
            )
            point3f[] points = [(0, 8, 3), (8, 8, 3), (8, 0, 3), (0, 0, 3)]
            texCoord2f[] primvars:st = [(0, 8), (8, 8), (8, 0), (0, 0)] (
                interpolation = "faceVarying"
            )
            uniform token subdivisionScheme = "none"
        }

        def Mesh "FloorRed" (
            prepend apiSchemas = ["MaterialBindingAPI"]
        )
        {
            float3[] extent = [(0, 0, 0), (8, 8, 0)]
            int[] faceVertexCounts = [4, 4, 4, 4, 4, 4, 4, 4, 4, 4, 4, 4, 4, 4, 4, 4, 4, 4, 4, 4, 4, 4, 4, 4, 4, 4, 4, 4, 4, 4, 4, 4]
            int[] faceVertexIndices = [0, 1, 2, 3, 4, 5, 6, 7, 8, 9, 10, 11, 12, 13, 14, 15, 16, 17, 18, 19, 20, 21, 22, 23, 24, 25, 26, 27, 28, 29, 30, 31, 32, 33, 34, 35, 36, 37, 38, 39, 40, 41, 42, 43, 44, 45, 46, 47, 48, 49, 50, 51, 52, 53, 54, 55, 56, 57, 58, 59, 60, 61, 62, 63, 64, 65, 66, 67, 68, 69, 70, 71, 72, 73, 74, 75, 76, 77, 78, 79, 80, 81, 82, 83, 84, 85, 86, 87, 88, 89, 90, 91, 92, 93, 94, 95, 96, 97, 98, 99, 100, 101, 102, 103, 104, 105, 106, 107, 108, 109, 110, 111, 112, 113, 114, 115, 116, 117, 118, 119, 120, 121, 122, 123, 124, 125, 126, 127]
            rel material:binding = </GalleryBleedCheckerHall/Looks/TileRed>
            normal3f[] normals = [(0, 0, 1), (0, 0, 1), (0, 0, 1), (0, 0, 1), (0, 0, 1), (0, 0, 1), (0, 0, 1), (0, 0, 1), (0, 0, 1), (0, 0, 1), (0, 0, 1), (0, 0, 1), (0, 0, 1), (0, 0, 1), (0, 0, 1), (0, 0, 1), (0, 0, 1), (0, 0, 1), (0, 0, 1), (0, 0, 1), (0, 0, 1), (0, 0, 1), (0, 0, 1), (0, 0, 1), (0, 0, 1), (0, 0, 1), (0, 0, 1), (0, 0, 1), (0, 0, 1), (0, 0, 1), (0, 0, 1), (0, 0, 1), (0, 0, 1), (0, 0, 1), (0, 0, 1), (0, 0, 1), (0, 0, 1), (0, 0, 1), (0, 0, 1), (0, 0, 1), (0, 0, 1), (0, 0, 1), (0, 0, 1), (0, 0, 1), (0, 0, 1), (0, 0, 1), (0, 0, 1), (0, 0, 1), (0, 0, 1), (0, 0, 1), (0, 0, 1), (0, 0, 1), (0, 0, 1), (0, 0, 1), (0, 0, 1), (0, 0, 1), (0, 0, 1), (0, 0, 1), (0, 0, 1), (0, 0, 1), (0, 0, 1), (0, 0, 1), (0, 0, 1), (0, 0, 1), (0, 0, 1), (0, 0, 1), (0, 0, 1), (0, 0, 1), (0, 0, 1), (0, 0, 1), (0, 0, 1), (0, 0, 1), (0, 0, 1), (0, 0, 1), (0, 0, 1), (0, 0, 1), (0, 0, 1), (0, 0, 1), (0, 0, 1), (0, 0, 1), (0, 0, 1), (0, 0, 1), (0, 0, 1), (0, 0, 1), (0, 0, 1), (0, 0, 1), (0, 0, 1), (0, 0, 1), (0, 0, 1), (0, 0, 1), (0, 0, 1), (0, 0, 1), (0, 0, 1), (0, 0, 1), (0, 0, 1), (0, 0, 1), (0, 0, 1), (0, 0, 1), (0, 0, 1), (0, 0, 1), (0, 0, 1), (0, 0, 1), (0, 0, 1), (0, 0, 1), (0, 0, 1), (0, 0, 1), (0, 0, 1), (0, 0, 1), (0, 0, 1), (0, 0, 1), (0, 0, 1), (0, 0, 1), (0, 0, 1), (0, 0, 1), (0, 0, 1), (0, 0, 1), (0, 0, 1), (0, 0, 1), (0, 0, 1), (0, 0, 1), (0, 0, 1), (0, 0, 1), (0, 0, 1), (0, 0, 1), (0, 0, 1), (0, 0, 1), (0, 0, 1), (0, 0, 1)] (
                interpolation = "faceVarying"
            )
            point3f[] points = [(0, 0, 0), (1, 0, 0), (1, 1, 0), (0, 1, 0), (0, 2, 0), (1, 2, 0), (1, 3, 0), (0, 3, 0), (0, 4, 0), (1, 4, 0), (1, 5, 0), (0, 5, 0), (0, 6, 0), (1, 6, 0), (1, 7, 0), (0, 7, 0), (1, 1, 0), (2, 1, 0), (2, 2, 0), (1, 2, 0), (1, 3, 0), (2, 3, 0), (2, 4, 0), (1, 4, 0), (1, 5, 0), (2, 5, 0), (2, 6, 0), (1, 6, 0), (1, 7, 0), (2, 7, 0), (2, 8, 0), (1, 8, 0), (2, 0, 0), (3, 0, 0), (3, 1, 0), (2, 1, 0), (2, 2, 0), (3, 2, 0), (3, 3, 0), (2, 3, 0), (2, 4, 0), (3, 4, 0), (3, 5, 0), (2, 5, 0), (2, 6, 0), (3, 6, 0), (3, 7, 0), (2, 7, 0), (3, 1, 0), (4, 1, 0), (4, 2, 0), (3, 2, 0), (3, 3, 0), (4, 3, 0), (4, 4, 0), (3, 4, 0), (3, 5, 0), (4, 5, 0), (4, 6, 0), (3, 6, 0), (3, 7, 0), (4, 7, 0), (4, 8, 0), (3, 8, 0), (4, 0, 0), (5, 0, 0), (5, 1, 0), (4, 1, 0), (4, 2, 0), (5, 2, 0), (5, 3, 0), (4, 3, 0), (4, 4, 0), (5, 4, 0), (5, 5, 0), (4, 5, 0), (4, 6, 0), (5, 6, 0), (5, 7, 0), (4, 7, 0), (5, 1, 0), (6, 1, 0), (6, 2, 0), (5, 2, 0), (5, 3, 0), (6, 3, 0), (6, 4, 0), (5, 4, 0), (5, 5, 0), (6, 5, 0), (6, 6, 0), (5, 6, 0), (5, 7, 0), (6, 7, 0), (6, 8, 0), (5, 8, 0), (6, 0, 0), (7, 0, 0), (7, 1, 0), (6, 1, 0), (6, 2, 0), (7, 2, 0), (7, 3, 0), (6, 3, 0), (6, 4, 0), (7, 4, 0), (7, 5, 0), (6, 5, 0), (6, 6, 0), (7, 6, 0), (7, 7, 0), (6, 7, 0), (7, 1, 0), (8, 1, 0), (8, 2, 0), (7, 2, 0), (7, 3, 0), (8, 3, 0), (8, 4, 0), (7, 4, 0), (7, 5, 0), (8, 5, 0), (8, 6, 0), (7, 6, 0), (7, 7, 0), (8, 7, 0), (8, 8, 0), (7, 8, 0)]
            texCoord2f[] primvars:st = [(0, 0), (1, 0), (1, 1), (0, 1), (0, 2), (1, 2), (1, 3), (0, 3), (0, 4), (1, 4), (1, 5), (0, 5), (0, 6), (1, 6), (1, 7), (0, 7), (1, 1), (2, 1), (2, 2), (1, 2), (1, 3), (2, 3), (2, 4), (1, 4), (1, 5), (2, 5), (2, 6), (1, 6), (1, 7), (2, 7), (2, 8), (1, 8), (2, 0), (3, 0), (3, 1), (2, 1), (2, 2), (3, 2), (3, 3), (2, 3), (2, 4), (3, 4), (3, 5), (2, 5), (2, 6), (3, 6), (3, 7), (2, 7), (3, 1), (4, 1), (4, 2), (3, 2), (3, 3), (4, 3), (4, 4), (3, 4), (3, 5), (4, 5), (4, 6), (3, 6), (3, 7), (4, 7), (4, 8), (3, 8), (4, 0), (5, 0), (5, 1), (4, 1), (4, 2), (5, 2), (5, 3), (4, 3), (4, 4), (5, 4), (5, 5), (4, 5), (4, 6), (5, 6), (5, 7), (4, 7), (5, 1), (6, 1), (6, 2), (5, 2), (5, 3), (6, 3), (6, 4), (5, 4), (5, 5), (6, 5), (6, 6), (5, 6), (5, 7), (6, 7), (6, 8), (5, 8), (6, 0), (7, 0), (7, 1), (6, 1), (6, 2), (7, 2), (7, 3), (6, 3), (6, 4), (7, 4), (7, 5), (6, 5), (6, 6), (7, 6), (7, 7), (6, 7), (7, 1), (8, 1), (8, 2), (7, 2), (7, 3), (8, 3), (8, 4), (7, 4), (7, 5), (8, 5), (8, 6), (7, 6), (7, 7), (8, 7), (8, 8), (7, 8)] (
                interpolation = "faceVarying"
            )
            uniform token subdivisionScheme = "none"
        }

        def Mesh "FloorBlue" (
            prepend apiSchemas = ["MaterialBindingAPI"]
        )
        {
            float3[] extent = [(0, 0, 0), (8, 8, 0)]
            int[] faceVertexCounts = [4, 4, 4, 4, 4, 4, 4, 4, 4, 4, 4, 4, 4, 4, 4, 4, 4, 4, 4, 4, 4, 4, 4, 4, 4, 4, 4, 4, 4, 4, 4, 4]
            int[] faceVertexIndices = [0, 1, 2, 3, 4, 5, 6, 7, 8, 9, 10, 11, 12, 13, 14, 15, 16, 17, 18, 19, 20, 21, 22, 23, 24, 25, 26, 27, 28, 29, 30, 31, 32, 33, 34, 35, 36, 37, 38, 39, 40, 41, 42, 43, 44, 45, 46, 47, 48, 49, 50, 51, 52, 53, 54, 55, 56, 57, 58, 59, 60, 61, 62, 63, 64, 65, 66, 67, 68, 69, 70, 71, 72, 73, 74, 75, 76, 77, 78, 79, 80, 81, 82, 83, 84, 85, 86, 87, 88, 89, 90, 91, 92, 93, 94, 95, 96, 97, 98, 99, 100, 101, 102, 103, 104, 105, 106, 107, 108, 109, 110, 111, 112, 113, 114, 115, 116, 117, 118, 119, 120, 121, 122, 123, 124, 125, 126, 127]
            rel material:binding = </GalleryBleedCheckerHall/Looks/TileBlue>
            normal3f[] normals = [(0, 0, 1), (0, 0, 1), (0, 0, 1), (0, 0, 1), (0, 0, 1), (0, 0, 1), (0, 0, 1), (0, 0, 1), (0, 0, 1), (0, 0, 1), (0, 0, 1), (0, 0, 1), (0, 0, 1), (0, 0, 1), (0, 0, 1), (0, 0, 1), (0, 0, 1), (0, 0, 1), (0, 0, 1), (0, 0, 1), (0, 0, 1), (0, 0, 1), (0, 0, 1), (0, 0, 1), (0, 0, 1), (0, 0, 1), (0, 0, 1), (0, 0, 1), (0, 0, 1), (0, 0, 1), (0, 0, 1), (0, 0, 1), (0, 0, 1), (0, 0, 1), (0, 0, 1), (0, 0, 1), (0, 0, 1), (0, 0, 1), (0, 0, 1), (0, 0, 1), (0, 0, 1), (0, 0, 1), (0, 0, 1), (0, 0, 1), (0, 0, 1), (0, 0, 1), (0, 0, 1), (0, 0, 1), (0, 0, 1), (0, 0, 1), (0, 0, 1), (0, 0, 1), (0, 0, 1), (0, 0, 1), (0, 0, 1), (0, 0, 1), (0, 0, 1), (0, 0, 1), (0, 0, 1), (0, 0, 1), (0, 0, 1), (0, 0, 1), (0, 0, 1), (0, 0, 1), (0, 0, 1), (0, 0, 1), (0, 0, 1), (0, 0, 1), (0, 0, 1), (0, 0, 1), (0, 0, 1), (0, 0, 1), (0, 0, 1), (0, 0, 1), (0, 0, 1), (0, 0, 1), (0, 0, 1), (0, 0, 1), (0, 0, 1), (0, 0, 1), (0, 0, 1), (0, 0, 1), (0, 0, 1), (0, 0, 1), (0, 0, 1), (0, 0, 1), (0, 0, 1), (0, 0, 1), (0, 0, 1), (0, 0, 1), (0, 0, 1), (0, 0, 1), (0, 0, 1), (0, 0, 1), (0, 0, 1), (0, 0, 1), (0, 0, 1), (0, 0, 1), (0, 0, 1), (0, 0, 1), (0, 0, 1), (0, 0, 1), (0, 0, 1), (0, 0, 1), (0, 0, 1), (0, 0, 1), (0, 0, 1), (0, 0, 1), (0, 0, 1), (0, 0, 1), (0, 0, 1), (0, 0, 1), (0, 0, 1), (0, 0, 1), (0, 0, 1), (0, 0, 1), (0, 0, 1), (0, 0, 1), (0, 0, 1), (0, 0, 1), (0, 0, 1), (0, 0, 1), (0, 0, 1), (0, 0, 1), (0, 0, 1), (0, 0, 1), (0, 0, 1), (0, 0, 1)] (
                interpolation = "faceVarying"
            )
            point3f[] points = [(0, 1, 0), (1, 1, 0), (1, 2, 0), (0, 2, 0), (0, 3, 0), (1, 3, 0), (1, 4, 0), (0, 4, 0), (0, 5, 0), (1, 5, 0), (1, 6, 0), (0, 6, 0), (0, 7, 0), (1, 7, 0), (1, 8, 0), (0, 8, 0), (1, 0, 0), (2, 0, 0), (2, 1, 0), (1, 1, 0), (1, 2, 0), (2, 2, 0), (2, 3, 0), (1, 3, 0), (1, 4, 0), (2, 4, 0), (2, 5, 0), (1, 5, 0), (1, 6, 0), (2, 6, 0), (2, 7, 0), (1, 7, 0), (2, 1, 0), (3, 1, 0), (3, 2, 0), (2, 2, 0), (2, 3, 0), (3, 3, 0), (3, 4, 0), (2, 4, 0), (2, 5, 0), (3, 5, 0), (3, 6, 0), (2, 6, 0), (2, 7, 0), (3, 7, 0), (3, 8, 0), (2, 8, 0), (3, 0, 0), (4, 0, 0), (4, 1, 0), (3, 1, 0), (3, 2, 0), (4, 2, 0), (4, 3, 0), (3, 3, 0), (3, 4, 0), (4, 4, 0), (4, 5, 0), (3, 5, 0), (3, 6, 0), (4, 6, 0), (4, 7, 0), (3, 7, 0), (4, 1, 0), (5, 1, 0), (5, 2, 0), (4, 2, 0), (4, 3, 0), (5, 3, 0), (5, 4, 0), (4, 4, 0), (4, 5, 0), (5, 5, 0), (5, 6, 0), (4, 6, 0), (4, 7, 0), (5, 7, 0), (5, 8, 0), (4, 8, 0), (5, 0, 0), (6, 0, 0), (6, 1, 0), (5, 1, 0), (5, 2, 0), (6, 2, 0), (6, 3, 0), (5, 3, 0), (5, 4, 0), (6, 4, 0), (6, 5, 0), (5, 5, 0), (5, 6, 0), (6, 6, 0), (6, 7, 0), (5, 7, 0), (6, 1, 0), (7, 1, 0), (7, 2, 0), (6, 2, 0), (6, 3, 0), (7, 3, 0), (7, 4, 0), (6, 4, 0), (6, 5, 0), (7, 5, 0), (7, 6, 0), (6, 6, 0), (6, 7, 0), (7, 7, 0), (7, 8, 0), (6, 8, 0), (7, 0, 0), (8, 0, 0), (8, 1, 0), (7, 1, 0), (7, 2, 0), (8, 2, 0), (8, 3, 0), (7, 3, 0), (7, 4, 0), (8, 4, 0), (8, 5, 0), (7, 5, 0), (7, 6, 0), (8, 6, 0), (8, 7, 0), (7, 7, 0)]
            texCoord2f[] primvars:st = [(0, 1), (1, 1), (1, 2), (0, 2), (0, 3), (1, 3), (1, 4), (0, 4), (0, 5), (1, 5), (1, 6), (0, 6), (0, 7), (1, 7), (1, 8), (0, 8), (1, 0), (2, 0), (2, 1), (1, 1), (1, 2), (2, 2), (2, 3), (1, 3), (1, 4), (2, 4), (2, 5), (1, 5), (1, 6), (2, 6), (2, 7), (1, 7), (2, 1), (3, 1), (3, 2), (2, 2), (2, 3), (3, 3), (3, 4), (2, 4), (2, 5), (3, 5), (3, 6), (2, 6), (2, 7), (3, 7), (3, 8), (2, 8), (3, 0), (4, 0), (4, 1), (3, 1), (3, 2), (4, 2), (4, 3), (3, 3), (3, 4), (4, 4), (4, 5), (3, 5), (3, 6), (4, 6), (4, 7), (3, 7), (4, 1), (5, 1), (5, 2), (4, 2), (4, 3), (5, 3), (5, 4), (4, 4), (4, 5), (5, 5), (5, 6), (4, 6), (4, 7), (5, 7), (5, 8), (4, 8), (5, 0), (6, 0), (6, 1), (5, 1), (5, 2), (6, 2), (6, 3), (5, 3), (5, 4), (6, 4), (6, 5), (5, 5), (5, 6), (6, 6), (6, 7), (5, 7), (6, 1), (7, 1), (7, 2), (6, 2), (6, 3), (7, 3), (7, 4), (6, 4), (6, 5), (7, 5), (7, 6), (6, 6), (6, 7), (7, 7), (7, 8), (6, 8), (7, 0), (8, 0), (8, 1), (7, 1), (7, 2), (8, 2), (8, 3), (7, 3), (7, 4), (8, 4), (8, 5), (7, 5), (7, 6), (8, 6), (8, 7), (7, 7)] (
                interpolation = "faceVarying"
            )
            uniform token subdivisionScheme = "none"
        }
    }

    def Xform "Lights"
    {
        def RectLight "Lamp"
        {
            color3f inputs:color = (1, 1, 1)
            float inputs:height = 2
            float inputs:intensity = 6
            bool inputs:normalize = 0
            float inputs:width = 2
            matrix4d xformOp:transform = ( (0, -1, 0, 0), (1, 0, 0, 0), (-0, -0, 1, 0), (4, 4, 2.99, 1) )
            uniform token[] xformOpOrder = ["xformOp:transform"]
        }
    }

    def Camera "Camera"
    {
        float2 clippingRange = (0.01, 1000)
        float focalLength = 18
        float horizontalAperture = 36
        float verticalAperture = 27
        matrix4d xformOp:transform = ( (1, -0, 0, 0), (0, 0.1912108416391471, 0.9815489870809552, 0), (-0, -0.9815489870809552, 0.1912108416391471, 0), (4, 0.3, 1.8, 1) )
        uniform token[] xformOpOrder = ["xformOp:transform"]
    }
}

