#usda 1.0
(
    "RFC 0011 GI fixture GalleryComplexStairwell; generated by tools/quality/gi_fixtures.py, do not edit"
    defaultPrim = "GalleryComplexStairwell"
    metersPerUnit = 1
    upAxis = "Z"
)

def Xform "GalleryComplexStairwell"
{
    def Scope "Looks"
    {
        def Material "Grey"
        {
            token outputs:surface.connect = </GalleryComplexStairwell/Looks/Grey/Surface.outputs:surface>

            def Shader "Surface"
            {
                uniform token info:id = "UsdPreviewSurface"
                color3f inputs:diffuseColor = (0.6, 0.6, 0.6)
                color3f inputs:emissiveColor = (0, 0, 0)
                float inputs:ior = 1
                float inputs:metallic = 0
                float inputs:roughness = 1
                token outputs:surface
            }
        }
    }

    def Xform "World"
    {
        def Mesh "H_Xn" (
            prepend apiSchemas = ["MaterialBindingAPI"]
        )
        {
            float3[] extent = [(0, 0, 0), (0, 8, 6)]
            int[] faceVertexCounts = [4]
            int[] faceVertexIndices = [0, 1, 2, 3]
            rel material:binding = </GalleryComplexStairwell/Looks/Grey>
            normal3f[] normals = [(1, 0, 0), (1, 0, 0), (1, 0, 0), (1, 0, 0)] (
                interpolation = "faceVarying"
            )
            point3f[] points = [(0, 0, 0), (0, 8, 0), (0, 8, 6), (0, 0, 6)]
            texCoord2f[] primvars:st = [(0, 0), (8, 0), (8, 6), (0, 6)] (
                interpolation = "faceVarying"
            )
            uniform token subdivisionScheme = "none"
        }

        def Mesh "H_Xp" (
            prepend apiSchemas = ["MaterialBindingAPI"]
        )
        {
            float3[] extent = [(6, 0, 0), (6, 8, 6)]
            int[] faceVertexCounts = [4]
            int[] faceVertexIndices = [0, 1, 2, 3]
            rel material:binding = </GalleryComplexStairwell/Looks/Grey>
            normal3f[] normals = [(-1, 0, 0), (-1, 0, 0), (-1, 0, 0), (-1, 0, 0)] (
                interpolation = "faceVarying"
            )
            point3f[] points = [(6, 0, 6), (6, 8, 6), (6, 8, 0), (6, 0, 0)]
            texCoord2f[] primvars:st = [(0, 6), (8, 6), (8, 0), (0, 0)] (
                interpolation = "faceVarying"
            )
            uniform token subdivisionScheme = "none"
        }

        def Mesh "H_Yn" (
            prepend apiSchemas = ["MaterialBindingAPI"]
        )
        {
            float3[] extent = [(0, 0, 0), (6, 0, 6)]
            int[] faceVertexCounts = [4]
            int[] faceVertexIndices = [0, 1, 2, 3]
            rel material:binding = </GalleryComplexStairwell/Looks/Grey>
            normal3f[] normals = [(0, 1, 0), (0, 1, 0), (0, 1, 0), (0, 1, 0)] (
                interpolation = "faceVarying"
            )
            point3f[] points = [(0, 0, 6), (6, 0, 6), (6, 0, 0), (0, 0, 0)]
            texCoord2f[] primvars:st = [(0, 6), (6, 6), (6, 0), (0, 0)] (
                interpolation = "faceVarying"
            )
            uniform token subdivisionScheme = "none"
        }

        def Mesh "H_Yp" (
            prepend apiSchemas = ["MaterialBindingAPI"]
        )
        {
            float3[] extent = [(0, 8, 0), (6, 8, 6)]
            int[] faceVertexCounts = [4]
            int[] faceVertexIndices = [0, 1, 2, 3]
            rel material:binding = </GalleryComplexStairwell/Looks/Grey>
            normal3f[] normals = [(0, -1, 0), (0, -1, 0), (0, -1, 0), (0, -1, 0)] (
                interpolation = "faceVarying"
            )
            point3f[] points = [(0, 8, 0), (6, 8, 0), (6, 8, 6), (0, 8, 6)]
            texCoord2f[] primvars:st = [(0, 0), (6, 0), (6, 6), (0, 6)] (
                interpolation = "faceVarying"
            )
            uniform token subdivisionScheme = "none"
        }

        def Mesh "H_Zn" (
            prepend apiSchemas = ["MaterialBindingAPI"]
        )
        {
            float3[] extent = [(0, 0, 0), (6, 8, 0)]
            int[] faceVertexCounts = [4]
            int[] faceVertexIndices = [0, 1, 2, 3]
            rel material:binding = </GalleryComplexStairwell/Looks/Grey>
            normal3f[] normals = [(0, 0, 1), (0, 0, 1), (0, 0, 1), (0, 0, 1)] (
                interpolation = "faceVarying"
            )
            point3f[] points = [(0, 0, 0), (6, 0, 0), (6, 8, 0), (0, 8, 0)]
            texCoord2f[] primvars:st = [(0, 0), (6, 0), (6, 8), (0, 8)] (
                interpolation = "faceVarying"
            )
            uniform token subdivisionScheme = "none"
        }

        def Mesh "H_Zp" (
            prepend apiSchemas = ["MaterialBindingAPI"]
        )
        {
            float3[] extent = [(0, 0, 6), (6, 8, 6)]
            int[] faceVertexCounts = [4]
            int[] faceVertexIndices = [0, 1, 2, 3]
            rel material:binding = </GalleryComplexStairwell/Looks/Grey>
            normal3f[] normals = [(0, 0, -1), (0, 0, -1), (0, 0, -1), (0, 0, -1)] (
                interpolation = "faceVarying"
            )
            point3f[] points = [(0, 8, 6), (6, 8, 6), (6, 0, 6), (0, 0, 6)]
            texCoord2f[] primvars:st = [(0, 8), (6, 8), (6, 0), (0, 0)] (
                interpolation = "faceVarying"
            )
            uniform token subdivisionScheme = "none"
        }

        def Mesh "Mezz_Yn" (
            prepend apiSchemas = ["MaterialBindingAPI"]
        )
        {
            float3[] extent = [(0, 4, 2.8), (6, 4, 3)]
            int[] faceVertexCounts = [4]
            int[] faceVertexIndices = [0, 1, 2, 3]
            rel material:binding = </GalleryComplexStairwell/Looks/Grey>
            normal3f[] normals = [(0, -1, 0), (0, -1, 0), (0, -1, 0), (0, -1, 0)] (
                interpolation = "faceVarying"
            )
            point3f[] points = [(0, 4, 2.8), (6, 4, 2.8), (6, 4, 3), (0, 4, 3)]
            texCoord2f[] primvars:st = [(0, 2.8), (6, 2.8), (6, 3), (0, 3)] (
                interpolation = "faceVarying"
            )
            uniform token subdivisionScheme = "none"
        }

        def Mesh "Mezz_Zn" (
            prepend apiSchemas = ["MaterialBindingAPI"]
        )
        {
            float3[] extent = [(0, 4, 2.8), (6, 8, 2.8)]
            int[] faceVertexCounts = [4]
            int[] faceVertexIndices = [0, 1, 2, 3]
            rel material:binding = </GalleryComplexStairwell/Looks/Grey>
            normal3f[] normals = [(0, 0, -1), (0, 0, -1), (0, 0, -1), (0, 0, -1)] (
                interpolation = "faceVarying"
            )
            point3f[] points = [(0, 8, 2.8), (6, 8, 2.8), (6, 4, 2.8), (0, 4, 2.8)]
            texCoord2f[] primvars:st = [(0, 8), (6, 8), (6, 4), (0, 4)] (
                interpolation = "faceVarying"
            )
            uniform token subdivisionScheme = "none"
        }

        def Mesh "Mezz_Zp" (
            prepend apiSchemas = ["MaterialBindingAPI"]
        )
        {
            float3[] extent = [(0, 4, 3), (6, 8, 3)]
            int[] faceVertexCounts = [4]
            int[] faceVertexIndices = [0, 1, 2, 3]
            rel material:binding = </GalleryComplexStairwell/Looks/Grey>
            normal3f[] normals = [(0, 0, 1), (0, 0, 1), (0, 0, 1), (0, 0, 1)] (
                interpolation = "faceVarying"
            )
            point3f[] points = [(0, 4, 3), (6, 4, 3), (6, 8, 3), (0, 8, 3)]
            texCoord2f[] primvars:st = [(0, 4), (6, 4), (6, 8), (0, 8)] (
                interpolation = "faceVarying"
            )
            uniform token subdivisionScheme = "none"
        }

        def Mesh "Stairs" (
            prepend apiSchemas = ["MaterialBindingAPI"]
        )
        {
            float3[] extent = [(0, 0.5, 0), (1.5, 3.8, 3.08)]
            int[] faceVertexCounts = [4, 4, 4, 4, 4, 4, 4, 4, 4, 4, 4, 4, 4, 4, 4, 4, 4, 4, 4, 4, 4, 4, 4, 4, 4, 4, 4, 4, 4, 4, 4, 4, 4, 4, 4, 4, 4, 4, 4, 4, 4, 4, 4, 4]
            int[] faceVertexIndices = [0, 1, 2, 3, 4, 5, 6, 7, 8, 9, 10, 11, 12, 13, 14, 15, 16, 17, 18, 19, 20, 21, 22, 23, 24, 25, 26, 27, 28, 29, 30, 31, 32, 33, 34, 35, 36, 37, 38, 39, 40, 41, 42, 43, 44, 45, 46, 47, 48, 49, 50, 51, 52, 53, 54, 55, 56, 57, 58, 59, 60, 61, 62, 63, 64, 65, 66, 67, 68, 69, 70, 71, 72, 73, 74, 75, 76, 77, 78, 79, 80, 81, 82, 83, 84, 85, 86, 87, 88, 89, 90, 91, 92, 93, 94, 95, 96, 97, 98, 99, 100, 101, 102, 103, 104, 105, 106, 107, 108, 109, 110, 111, 112, 113, 114, 115, 116, 117, 118, 119, 120, 121, 122, 123, 124, 125, 126, 127, 128, 129, 130, 131, 132, 133, 134, 135, 136, 137, 138, 139, 140, 141, 142, 143, 144, 145, 146, 147, 148, 149, 150, 151, 152, 153, 154, 155, 156, 157, 158, 159, 160, 161, 162, 163, 164, 165, 166, 167, 168, 169, 170, 171, 172, 173, 174, 175]
            rel material:binding = </GalleryComplexStairwell/Looks/Grey>
            normal3f[] normals = [(1, 0, 0), (1, 0, 0), (1, 0, 0), (1, 0, 0), (0, -1, 0), (0, -1, 0), (0, -1, 0), (0, -1, 0), (0, 1, 0), (0, 1, 0), (0, 1, 0), (0, 1, 0), (0, 0, 1), (0, 0, 1), (0, 0, 1), (0, 0, 1), (1, 0, 0), (1, 0, 0), (1, 0, 0), (1, 0, 0), (0, -1, 0), (0, -1, 0), (0, -1, 0), (0, -1, 0), (0, 1, 0), (0, 1, 0), (0, 1, 0), (0, 1, 0), (0, 0, 1), (0, 0, 1), (0, 0, 1), (0, 0, 1), (1, 0, 0), (1, 0, 0), (1, 0, 0), (1, 0, 0), (0, -1, 0), (0, -1, 0), (0, -1, 0), (0, -1, 0), (0, 1, 0), (0, 1, 0), (0, 1, 0), (0, 1, 0), (0, 0, 1), (0, 0, 1), (0, 0, 1), (0, 0, 1), (1, 0, 0), (1, 0, 0), (1, 0, 0), (1, 0, 0), (0, -1, 0), (0, -1, 0), (0, -1, 0), (0, -1, 0), (0, 1, 0), (0, 1, 0), (0, 1, 0), (0, 1, 0), (0, 0, 1), (0, 0, 1), (0, 0, 1), (0, 0, 1), (1, 0, 0), (1, 0, 0), (1, 0, 0), (1, 0, 0), (0, -1, 0), (0, -1, 0), (0, -1, 0), (0, -1, 0), (0, 1, 0), (0, 1, 0), (0, 1, 0), (0, 1, 0), (0, 0, 1), (0, 0, 1), (0, 0, 1), (0, 0, 1), (1, 0, 0), (1, 0, 0), (1, 0, 0), (1, 0, 0), (0, -1, 0), (0, -1, 0), (0, -1, 0), (0, -1, 0), (0, 1, 0), (0, 1, 0), (0, 1, 0), (0, 1, 0), (0, 0, 1), (0, 0, 1), (0, 0, 1), (0, 0, 1), (1, 0, 0), (1, 0, 0), (1, 0, 0), (1, 0, 0), (0, -1, 0), (0, -1, 0), (0, -1, 0), (0, -1, 0), (0, 1, 0), (0, 1, 0), (0, 1, 0), (0, 1, 0), (0, 0, 1), (0, 0, 1), (0, 0, 1), (0, 0, 1), (1, 0, 0), (1, 0, 0), (1, 0, 0), (1, 0, 0), (0, -1, 0), (0, -1, 0), (0, -1, 0), (0, -1, 0), (0, 1, 0), (0, 1, 0), (0, 1, 0), (0, 1, 0), (0, 0, 1), (0, 0, 1), (0, 0, 1), (0, 0, 1), (1, 0, 0), (1, 0, 0), (1, 0, 0), (1, 0, 0), (0, -1, 0), (0, -1, 0), (0, -1, 0), (0, -1, 0), (0, 1, 0), (0, 1, 0), (0, 1, 0), (0, 1, 0), (0, 0, 1), (0, 0, 1), (0, 0, 1), (0, 0, 1), (1, 0, 0), (1, 0, 0), (1, 0, 0), (1, 0, 0), (0, -1, 0), (0, -1, 0), (0, -1, 0), (0, -1, 0), (0, 1, 0), (0, 1, 0), (0, 1, 0), (0, 1, 0), (0, 0, 1), (0, 0, 1), (0, 0, 1), (0, 0, 1), (1, 0, 0), (1, 0, 0), (1, 0, 0), (1, 0, 0), (0, -1, 0), (0, -1, 0), (0, -1, 0), (0, -1, 0), (0, 1, 0), (0, 1, 0), (0, 1, 0), (0, 1, 0), (0, 0, 1), (0, 0, 1), (0, 0, 1), (0, 0, 1)] (
                interpolation = "faceVarying"
            )
            point3f[] points = [(1.5, 0.5, 0), (1.5, 0.8, 0), (1.5, 0.8, 0.28), (1.5, 0.5, 0.28), (0, 0.5, 0), (1.5, 0.5, 0), (1.5, 0.5, 0.28), (0, 0.5, 0.28), (0, 0.8, 0.28), (1.5, 0.8, 0.28), (1.5, 0.8, 0), (0, 0.8, 0), (0, 0.5, 0.28), (1.5, 0.5, 0.28), (1.5, 0.8, 0.28), (0, 0.8, 0.28), (1.5, 0.8, 0), (1.5, 1.1, 0), (1.5, 1.1, 0.56), (1.5, 0.8, 0.56), (0, 0.8, 0), (1.5, 0.8, 0), (1.5, 0.8, 0.56), (0, 0.8, 0.56), (0, 1.1, 0.56), (1.5, 1.1, 0.56), (1.5, 1.1, 0), (0, 1.1, 0), (0, 0.8, 0.56), (1.5, 0.8, 0.56), (1.5, 1.1, 0.56), (0, 1.1, 0.56), (1.5, 1.1, 0), (1.5, 1.4, 0), (1.5, 1.4, 0.84), (1.5, 1.1, 0.84), (0, 1.1, 0), (1.5, 1.1, 0), (1.5, 1.1, 0.84), (0, 1.1, 0.84), (0, 1.4, 0.84), (1.5, 1.4, 0.84), (1.5, 1.4, 0), (0, 1.4, 0), (0, 1.1, 0.84), (1.5, 1.1, 0.84), (1.5, 1.4, 0.84), (0, 1.4, 0.84), (1.5, 1.4, 0), (1.5, 1.7, 0), (1.5, 1.7, 1.12), (1.5, 1.4, 1.12), (0, 1.4, 0), (1.5, 1.4, 0), (1.5, 1.4, 1.12), (0, 1.4, 1.12), (0, 1.7, 1.12), (1.5, 1.7, 1.12), (1.5, 1.7, 0), (0, 1.7, 0), (0, 1.4, 1.12), (1.5, 1.4, 1.12), (1.5, 1.7, 1.12), (0, 1.7, 1.12), (1.5, 1.7, 0), (1.5, 2, 0), (1.5, 2, 1.4), (1.5, 1.7, 1.4), (0, 1.7, 0), (1.5, 1.7, 0), (1.5, 1.7, 1.4), (0, 1.7, 1.4), (0, 2, 1.4), (1.5, 2, 1.4), (1.5, 2, 0), (0, 2, 0), (0, 1.7, 1.4), (1.5, 1.7, 1.4), (1.5, 2, 1.4), (0, 2, 1.4), (1.5, 2, 0), (1.5, 2.3, 0), (1.5, 2.3, 1.68), (1.5, 2, 1.68), (0, 2, 0), (1.5, 2, 0), (1.5, 2, 1.68), (0, 2, 1.68), (0, 2.3, 1.68), (1.5, 2.3, 1.68), (1.5, 2.3, 0), (0, 2.3, 0), (0, 2, 1.68), (1.5, 2, 1.68), (1.5, 2.3, 1.68), (0, 2.3, 1.68), (1.5, 2.3, 0), (1.5, 2.6, 0), (1.5, 2.6, 1.96), (1.5, 2.3, 1.96), (0, 2.3, 0), (1.5, 2.3, 0), (1.5, 2.3, 1.96), (0, 2.3, 1.96), (0, 2.6, 1.96), (1.5, 2.6, 1.96), (1.5, 2.6, 0), (0, 2.6, 0), (0, 2.3, 1.96), (1.5, 2.3, 1.96), (1.5, 2.6, 1.96), (0, 2.6, 1.96), (1.5, 2.6, 0), (1.5, 2.9, 0), (1.5, 2.9, 2.24), (1.5, 2.6, 2.24), (0, 2.6, 0), (1.5, 2.6, 0), (1.5, 2.6, 2.24), (0, 2.6, 2.24), (0, 2.9, 2.24), (1.5, 2.9, 2.24), (1.5, 2.9, 0), (0, 2.9, 0), (0, 2.6, 2.24), (1.5, 2.6, 2.24), (1.5, 2.9, 2.24), (0, 2.9, 2.24), (1.5, 2.9, 0), (1.5, 3.2, 0), (1.5, 3.2, 2.52), (1.5, 2.9, 2.52), (0, 2.9, 0), (1.5, 2.9, 0), (1.5, 2.9, 2.52), (0, 2.9, 2.52), (0, 3.2, 2.52), (1.5, 3.2, 2.52), (1.5, 3.2, 0), (0, 3.2, 0), (0, 2.9, 2.52), (1.5, 2.9, 2.52), (1.5, 3.2, 2.52), (0, 3.2, 2.52), (1.5, 3.2, 0), (1.5, 3.5, 0), (1.5, 3.5, 2.8), (1.5, 3.2, 2.8), (0, 3.2, 0), (1.5, 3.2, 0), (1.5, 3.2, 2.8), (0, 3.2, 2.8), (0, 3.5, 2.8), (1.5, 3.5, 2.8), (1.5, 3.5, 0), (0, 3.5, 0), (0, 3.2, 2.8), (1.5, 3.2, 2.8), (1.5, 3.5, 2.8), (0, 3.5, 2.8), (1.5, 3.5, 0), (1.5, 3.8, 0), (1.5, 3.8, 3.08), (1.5, 3.5, 3.08), (0, 3.5, 0), (1.5, 3.5, 0), (1.5, 3.5, 3.08), (0, 3.5, 3.08), (0, 3.8, 3.08), (1.5, 3.8, 3.08), (1.5, 3.8, 0), (0, 3.8, 0), (0, 3.5, 3.08), (1.5, 3.5, 3.08), (1.5, 3.8, 3.08), (0, 3.8, 3.08)]
            texCoord2f[] primvars:st = [(0.5, 0), (0.8, 0), (0.8, 0.28), (0.5, 0.28), (0, 0), (1.5, 0), (1.5, 0.28), (0, 0.28), (0, 0.28), (1.5, 0.28), (1.5, 0), (0, 0), (0, 0.5), (1.5, 0.5), (1.5, 0.8), (0, 0.8), (0.8, 0), (1.1, 0), (1.1, 0.56), (0.8, 0.56), (0, 0), (1.5, 0), (1.5, 0.56), (0, 0.56), (0, 0.56), (1.5, 0.56), (1.5, 0), (0, 0), (0, 0.8), (1.5, 0.8), (1.5, 1.1), (0, 1.1), (1.1, 0), (1.4, 0), (1.4, 0.84), (1.1, 0.84), (0, 0), (1.5, 0), (1.5, 0.84), (0, 0.84), (0, 0.84), (1.5, 0.84), (1.5, 0), (0, 0), (0, 1.1), (1.5, 1.1), (1.5, 1.4), (0, 1.4), (1.4, 0), (1.7, 0), (1.7, 1.12), (1.4, 1.12), (0, 0), (1.5, 0), (1.5, 1.12), (0, 1.12), (0, 1.12), (1.5, 1.12), (1.5, 0), (0, 0), (0, 1.4), (1.5, 1.4), (1.5, 1.7), (0, 1.7), (1.7, 0), (2, 0), (2, 1.4), (1.7, 1.4), (0, 0), (1.5, 0), (1.5, 1.4), (0, 1.4), (0, 1.4), (1.5, 1.4), (1.5, 0), (0, 0), (0, 1.7), (1.5, 1.7), (1.5, 2), (0, 2), (2, 0), (2.3, 0), (2.3, 1.68), (2, 1.68), (0, 0), (1.5, 0), (1.5, 1.68), (0, 1.68), (0, 1.68), (1.5, 1.68), (1.5, 0), (0, 0), (0, 2), (1.5, 2), (1.5, 2.3), (0, 2.3), (2.3, 0), (2.6, 0), (2.6, 1.96), (2.3, 1.96), (0, 0), (1.5, 0), (1.5, 1.96), (0, 1.96), (0, 1.96), (1.5, 1.96), (1.5, 0), (0, 0), (0, 2.3), (1.5, 2.3), (1.5, 2.6), (0, 2.6), (2.6, 0), (2.9, 0), (2.9, 2.24), (2.6, 2.24), (0, 0), (1.5, 0), (1.5, 2.24), (0, 2.24), (0, 2.24), (1.5, 2.24), (1.5, 0), (0, 0), (0, 2.6), (1.5, 2.6), (1.5, 2.9), (0, 2.9), (2.9, 0), (3.2, 0), (3.2, 2.52), (2.9, 2.52), (0, 0), (1.5, 0), (1.5, 2.52), (0, 2.52), (0, 2.52), (1.5, 2.52), (1.5, 0), (0, 0), (0, 2.9), (1.5, 2.9), (1.5, 3.2), (0, 3.2), (3.2, 0), (3.5, 0), (3.5, 2.8), (3.2, 2.8), (0, 0), (1.5, 0), (1.5, 2.8), (0, 2.8), (0, 2.8), (1.5, 2.8), (1.5, 0), (0, 0), (0, 3.2), (1.5, 3.2), (1.5, 3.5), (0, 3.5), (3.5, 0), (3.8, 0), (3.8, 3.08), (3.5, 3.08), (0, 0), (1.5, 0), (1.5, 3.08), (0, 3.08), (0, 3.08), (1.5, 3.08), (1.5, 0), (0, 0), (0, 3.5), (1.5, 3.5), (1.5, 3.8), (0, 3.8)] (
                interpolation = "faceVarying"
            )
            uniform token subdivisionScheme = "none"
        }
    }

    def Xform "Lights"
    {
        def SphereLight "Warm"
        {
            color3f inputs:color = (1, 0.7, 0.4)
            float inputs:intensity = 400
            bool inputs:normalize = 0
            float inputs:radius = 0.1
            matrix4d xformOp:transform = ( (0, -1, 0, 0), (1, 0, 0, 0), (-0, -0, 1, 0), (4, 6, 5, 1) )
            uniform token[] xformOpOrder = ["xformOp:transform"]
        }

        def SphereLight "Cool"
        {
            color3f inputs:color = (0.4, 0.6, 1)
            float inputs:intensity = 300
            bool inputs:normalize = 0
            float inputs:radius = 0.1
            matrix4d xformOp:transform = ( (0, -1, 0, 0), (1, 0, 0, 0), (-0, -0, 1, 0), (4, 6, 1.5, 1) )
            uniform token[] xformOpOrder = ["xformOp:transform"]
        }
    }

    def Camera "Camera"
    {
        float2 clippingRange = (0.01, 1000)
        float focalLength = 18
        float horizontalAperture = 36
        float verticalAperture = 27
        matrix4d xformOp:transform = ( (0.8521712257191476, 0.5232630333363189, -0, 0), (-0.023445361841090806, 0.0381824464269193, 0.9989957035908593, 0), (0.5227375221509031, -0.8513153932171849, 0.04480607332722027, 0), (5.5, 0.3, 1.5, 1) )
        uniform token[] xformOpOrder = ["xformOp:transform"]
    }
}

