#usda 1.0
(
    "RFC 0011 GI fixture GalleryMixNeonStrips; generated by tools/quality/gi_fixtures.py, do not edit"
    defaultPrim = "GalleryMixNeonStrips"
    metersPerUnit = 1
    upAxis = "Z"
)

def Xform "GalleryMixNeonStrips"
{
    def Scope "Looks"
    {
        def Material "Grey"
        {
            token outputs:surface.connect = </GalleryMixNeonStrips/Looks/Grey/Surface.outputs:surface>

            def Shader "Surface"
            {
                uniform token info:id = "UsdPreviewSurface"
                color3f inputs:diffuseColor = (0.5, 0.5, 0.5)
                color3f inputs:emissiveColor = (0, 0, 0)
                float inputs:ior = 1
                float inputs:metallic = 0
                float inputs:roughness = 1
                token outputs:surface
            }
        }

        def Material "NeonRed"
        {
            token outputs:surface.connect = </GalleryMixNeonStrips/Looks/NeonRed/Surface.outputs:surface>

            def Shader "Surface"
            {
                uniform token info:id = "UsdPreviewSurface"
                color3f inputs:diffuseColor = (0, 0, 0)
                color3f inputs:emissiveColor = (6, 0, 0)
                float inputs:ior = 1
                float inputs:metallic = 0
                float inputs:roughness = 1
                token outputs:surface
            }
        }

        def Material "NeonOrange"
        {
            token outputs:surface.connect = </GalleryMixNeonStrips/Looks/NeonOrange/Surface.outputs:surface>

            def Shader "Surface"
            {
                uniform token info:id = "UsdPreviewSurface"
                color3f inputs:diffuseColor = (0, 0, 0)
                color3f inputs:emissiveColor = (6, 3, 0)
                float inputs:ior = 1
                float inputs:metallic = 0
                float inputs:roughness = 1
                token outputs:surface
            }
        }

        def Material "NeonYellow"
        {
            token outputs:surface.connect = </GalleryMixNeonStrips/Looks/NeonYellow/Surface.outputs:surface>

            def Shader "Surface"
            {
                uniform token info:id = "UsdPreviewSurface"
                color3f inputs:diffuseColor = (0, 0, 0)
                color3f inputs:emissiveColor = (6, 6, 0)
                float inputs:ior = 1
                float inputs:metallic = 0
                float inputs:roughness = 1
                token outputs:surface
            }
        }

        def Material "NeonGreen"
        {
            token outputs:surface.connect = </GalleryMixNeonStrips/Looks/NeonGreen/Surface.outputs:surface>

            def Shader "Surface"
            {
                uniform token info:id = "UsdPreviewSurface"
                color3f inputs:diffuseColor = (0, 0, 0)
                color3f inputs:emissiveColor = (0, 6, 0)
                float inputs:ior = 1
                float inputs:metallic = 0
                float inputs:roughness = 1
                token outputs:surface
            }
        }

        def Material "NeonBlue"
        {
            token outputs:surface.connect = </GalleryMixNeonStrips/Looks/NeonBlue/Surface.outputs:surface>

            def Shader "Surface"
            {
                uniform token info:id = "UsdPreviewSurface"
                color3f inputs:diffuseColor = (0, 0, 0)
                color3f inputs:emissiveColor = (0, 1.8, 6)
                float inputs:ior = 1
                float inputs:metallic = 0
                float inputs:roughness = 1
                token outputs:surface
            }
        }

        def Material "NeonViolet"
        {
            token outputs:surface.connect = </GalleryMixNeonStrips/Looks/NeonViolet/Surface.outputs:surface>

            def Shader "Surface"
            {
                uniform token info:id = "UsdPreviewSurface"
                color3f inputs:diffuseColor = (0, 0, 0)
                color3f inputs:emissiveColor = (3.6, 0, 6)
                float inputs:ior = 1
                float inputs:metallic = 0
                float inputs:roughness = 1
                token outputs:surface
            }
        }
    }

    def Xform "World"
    {
        def Mesh "R_Xn" (
            prepend apiSchemas = ["MaterialBindingAPI"]
        )
        {
            float3[] extent = [(0, 0, 0), (0, 8, 3)]
            int[] faceVertexCounts = [4]
            int[] faceVertexIndices = [0, 1, 2, 3]
            rel material:binding = </GalleryMixNeonStrips/Looks/Grey>
            normal3f[] normals = [(1, 0, 0), (1, 0, 0), (1, 0, 0), (1, 0, 0)] (
                interpolation = "faceVarying"
            )
            point3f[] points = [(0, 0, 0), (0, 8, 0), (0, 8, 3), (0, 0, 3)]
            texCoord2f[] primvars:st = [(0, 0), (8, 0), (8, 3), (0, 3)] (
                interpolation = "faceVarying"
            )
            uniform token subdivisionScheme = "none"
        }

        def Mesh "R_Xp" (
            prepend apiSchemas = ["MaterialBindingAPI"]
        )
        {
            float3[] extent = [(8, 0, 0), (8, 8, 3)]
            int[] faceVertexCounts = [4]
            int[] faceVertexIndices = [0, 1, 2, 3]
            rel material:binding = </GalleryMixNeonStrips/Looks/Grey>
            normal3f[] normals = [(-1, 0, 0), (-1, 0, 0), (-1, 0, 0), (-1, 0, 0)] (
                interpolation = "faceVarying"
            )
            point3f[] points = [(8, 0, 3), (8, 8, 3), (8, 8, 0), (8, 0, 0)]
            texCoord2f[] primvars:st = [(0, 3), (8, 3), (8, 0), (0, 0)] (
                interpolation = "faceVarying"
            )
            uniform token subdivisionScheme = "none"
        }

        def Mesh "R_Yn" (
            prepend apiSchemas = ["MaterialBindingAPI"]
        )
        {
            float3[] extent = [(0, 0, 0), (8, 0, 3)]
            int[] faceVertexCounts = [4]
            int[] faceVertexIndices = [0, 1, 2, 3]
            rel material:binding = </GalleryMixNeonStrips/Looks/Grey>
            normal3f[] normals = [(0, 1, 0), (0, 1, 0), (0, 1, 0), (0, 1, 0)] (
                interpolation = "faceVarying"
            )
            point3f[] points = [(0, 0, 3), (8, 0, 3), (8, 0, 0), (0, 0, 0)]
            texCoord2f[] primvars:st = [(0, 3), (8, 3), (8, 0), (0, 0)] (
                interpolation = "faceVarying"
            )
            uniform token subdivisionScheme = "none"
        }

        def Mesh "R_Yp" (
            prepend apiSchemas = ["MaterialBindingAPI"]
        )
        {
            float3[] extent = [(0, 8, 0), (8, 8, 3)]
            int[] faceVertexCounts = [4]
            int[] faceVertexIndices = [0, 1, 2, 3]
            rel material:binding = </GalleryMixNeonStrips/Looks/Grey>
            normal3f[] normals = [(0, -1, 0), (0, -1, 0), (0, -1, 0), (0, -1, 0)] (
                interpolation = "faceVarying"
            )
            point3f[] points = [(0, 8, 0), (8, 8, 0), (8, 8, 3), (0, 8, 3)]
            texCoord2f[] primvars:st = [(0, 0), (8, 0), (8, 3), (0, 3)] (
                interpolation = "faceVarying"
            )
            uniform token subdivisionScheme = "none"
        }

        def Mesh "R_Zn" (
            prepend apiSchemas = ["MaterialBindingAPI"]
        )
        {
            float3[] extent = [(0, 0, 0), (8, 8, 0)]
            int[] faceVertexCounts = [4]
            int[] faceVertexIndices = [0, 1, 2, 3]
            rel material:binding = </GalleryMixNeonStrips/Looks/Grey>
            normal3f[] normals = [(0, 0, 1), (0, 0, 1), (0, 0, 1), (0, 0, 1)] (
                interpolation = "faceVarying"
            )
            point3f[] points = [(0, 0, 0), (8, 0, 0), (8, 8, 0), (0, 8, 0)]
            texCoord2f[] primvars:st = [(0, 0), (8, 0), (8, 8), (0, 8)] (
                interpolation = "faceVarying"
            )
            uniform token subdivisionScheme = "none"
        }

        def Mesh "R_Zp" (
            prepend apiSchemas = ["MaterialBindingAPI"]
        )
        {
            float3[] extent = [(0, 0, 3), (8, 8, 3)]
            int[] faceVertexCounts = [4]
            int[] faceVertexIndices = [0, 1, 2, 3]
            rel material:binding = </GalleryMixNeonStrips/Looks/Grey>
            normal3f[] normals = [(0, 0, -1), (0, 0, -1), (0, 0, -1), (0, 0, -1)] (
                interpolation = "faceVarying"
            )
            point3f[] points = [(0, 8, 3), (8, 8, 3), (8, 0, 3), (0, 0, 3)]
            texCoord2f[] primvars:st = [(0, 8), (8, 8), (8, 0), (0, 0)] (
                interpolation = "faceVarying"
            )
            uniform token subdivisionScheme = "none"
        }

        def Mesh "NeonRed" (
            prepend apiSchemas = ["MaterialBindingAPI"]
        )
        {
            float3[] extent = [(0.6, 7.9, 2.3), (1.6, 7.98, 2.4)]
            int[] faceVertexCounts = [4, 4, 4, 4, 4, 4]
            int[] faceVertexIndices = [0, 1, 2, 3, 4, 5, 6, 7, 8, 9, 10, 11, 12, 13, 14, 15, 16, 17, 18, 19, 20, 21, 22, 23]
            rel material:binding = </GalleryMixNeonStrips/Looks/NeonRed>
            normal3f[] normals = [(-1, 0, 0), (-1, 0, 0), (-1, 0, 0), (-1, 0, 0), (1, 0, 0), (1, 0, 0), (1, 0, 0), (1, 0, 0), (0, -1, 0), (0, -1, 0), (0, -1, 0), (0, -1, 0), (0, 1, 0), (0, 1, 0), (0, 1, 0), (0, 1, 0), (0, 0, -1), (0, 0, -1), (0, 0, -1), (0, 0, -1), (0, 0, 1), (0, 0, 1), (0, 0, 1), (0, 0, 1)] (
                interpolation = "faceVarying"
            )
            point3f[] points = [(0.6, 7.9, 2.4), (0.6, 7.98, 2.4), (0.6, 7.98, 2.3), (0.6, 7.9, 2.3), (1.6, 7.9, 2.3), (1.6, 7.98, 2.3), (1.6, 7.98, 2.4), (1.6, 7.9, 2.4), (0.6, 7.9, 2.3), (1.6, 7.9, 2.3), (1.6, 7.9, 2.4), (0.6, 7.9, 2.4), (0.6, 7.98, 2.4), (1.6, 7.98, 2.4), (1.6, 7.98, 2.3), (0.6, 7.98, 2.3), (0.6, 7.98, 2.3), (1.6, 7.98, 2.3), (1.6, 7.9, 2.3), (0.6, 7.9, 2.3), (0.6, 7.9, 2.4), (1.6, 7.9, 2.4), (1.6, 7.98, 2.4), (0.6, 7.98, 2.4)]
            texCoord2f[] primvars:st = [(7.9, 2.4), (7.98, 2.4), (7.98, 2.3), (7.9, 2.3), (7.9, 2.3), (7.98, 2.3), (7.98, 2.4), (7.9, 2.4), (0.6, 2.3), (1.6, 2.3), (1.6, 2.4), (0.6, 2.4), (0.6, 2.4), (1.6, 2.4), (1.6, 2.3), (0.6, 2.3), (0.6, 7.98), (1.6, 7.98), (1.6, 7.9), (0.6, 7.9), (0.6, 7.9), (1.6, 7.9), (1.6, 7.98), (0.6, 7.98)] (
                interpolation = "faceVarying"
            )
            uniform token subdivisionScheme = "none"
        }

        def Mesh "NeonOrange" (
            prepend apiSchemas = ["MaterialBindingAPI"]
        )
        {
            float3[] extent = [(1.8, 7.9, 2.3), (2.8, 7.98, 2.4)]
            int[] faceVertexCounts = [4, 4, 4, 4, 4, 4]
            int[] faceVertexIndices = [0, 1, 2, 3, 4, 5, 6, 7, 8, 9, 10, 11, 12, 13, 14, 15, 16, 17, 18, 19, 20, 21, 22, 23]
            rel material:binding = </GalleryMixNeonStrips/Looks/NeonOrange>
            normal3f[] normals = [(-1, 0, 0), (-1, 0, 0), (-1, 0, 0), (-1, 0, 0), (1, 0, 0), (1, 0, 0), (1, 0, 0), (1, 0, 0), (0, -1, 0), (0, -1, 0), (0, -1, 0), (0, -1, 0), (0, 1, 0), (0, 1, 0), (0, 1, 0), (0, 1, 0), (0, 0, -1), (0, 0, -1), (0, 0, -1), (0, 0, -1), (0, 0, 1), (0, 0, 1), (0, 0, 1), (0, 0, 1)] (
                interpolation = "faceVarying"
            )
            point3f[] points = [(1.8, 7.9, 2.4), (1.8, 7.98, 2.4), (1.8, 7.98, 2.3), (1.8, 7.9, 2.3), (2.8, 7.9, 2.3), (2.8, 7.98, 2.3), (2.8, 7.98, 2.4), (2.8, 7.9, 2.4), (1.8, 7.9, 2.3), (2.8, 7.9, 2.3), (2.8, 7.9, 2.4), (1.8, 7.9, 2.4), (1.8, 7.98, 2.4), (2.8, 7.98, 2.4), (2.8, 7.98, 2.3), (1.8, 7.98, 2.3), (1.8, 7.98, 2.3), (2.8, 7.98, 2.3), (2.8, 7.9, 2.3), (1.8, 7.9, 2.3), (1.8, 7.9, 2.4), (2.8, 7.9, 2.4), (2.8, 7.98, 2.4), (1.8, 7.98, 2.4)]
            texCoord2f[] primvars:st = [(7.9, 2.4), (7.98, 2.4), (7.98, 2.3), (7.9, 2.3), (7.9, 2.3), (7.98, 2.3), (7.98, 2.4), (7.9, 2.4), (1.8, 2.3), (2.8, 2.3), (2.8, 2.4), (1.8, 2.4), (1.8, 2.4), (2.8, 2.4), (2.8, 2.3), (1.8, 2.3), (1.8, 7.98), (2.8, 7.98), (2.8, 7.9), (1.8, 7.9), (1.8, 7.9), (2.8, 7.9), (2.8, 7.98), (1.8, 7.98)] (
                interpolation = "faceVarying"
            )
            uniform token subdivisionScheme = "none"
        }

        def Mesh "NeonYellow" (
            prepend apiSchemas = ["MaterialBindingAPI"]
        )
        {
            float3[] extent = [(3, 7.9, 2.3), (4, 7.98, 2.4)]
            int[] faceVertexCounts = [4, 4, 4, 4, 4, 4]
            int[] faceVertexIndices = [0, 1, 2, 3, 4, 5, 6, 7, 8, 9, 10, 11, 12, 13, 14, 15, 16, 17, 18, 19, 20, 21, 22, 23]
            rel material:binding = </GalleryMixNeonStrips/Looks/NeonYellow>
            normal3f[] normals = [(-1, 0, 0), (-1, 0, 0), (-1, 0, 0), (-1, 0, 0), (1, 0, 0), (1, 0, 0), (1, 0, 0), (1, 0, 0), (0, -1, 0), (0, -1, 0), (0, -1, 0), (0, -1, 0), (0, 1, 0), (0, 1, 0), (0, 1, 0), (0, 1, 0), (0, 0, -1), (0, 0, -1), (0, 0, -1), (0, 0, -1), (0, 0, 1), (0, 0, 1), (0, 0, 1), (0, 0, 1)] (
                interpolation = "faceVarying"
            )
            point3f[] points = [(3, 7.9, 2.4), (3, 7.98, 2.4), (3, 7.98, 2.3), (3, 7.9, 2.3), (4, 7.9, 2.3), (4, 7.98, 2.3), (4, 7.98, 2.4), (4, 7.9, 2.4), (3, 7.9, 2.3), (4, 7.9, 2.3), (4, 7.9, 2.4), (3, 7.9, 2.4), (3, 7.98, 2.4), (4, 7.98, 2.4), (4, 7.98, 2.3), (3, 7.98, 2.3), (3, 7.98, 2.3), (4, 7.98, 2.3), (4, 7.9, 2.3), (3, 7.9, 2.3), (3, 7.9, 2.4), (4, 7.9, 2.4), (4, 7.98, 2.4), (3, 7.98, 2.4)]
            texCoord2f[] primvars:st = [(7.9, 2.4), (7.98, 2.4), (7.98, 2.3), (7.9, 2.3), (7.9, 2.3), (7.98, 2.3), (7.98, 2.4), (7.9, 2.4), (3, 2.3), (4, 2.3), (4, 2.4), (3, 2.4), (3, 2.4), (4, 2.4), (4, 2.3), (3, 2.3), (3, 7.98), (4, 7.98), (4, 7.9), (3, 7.9), (3, 7.9), (4, 7.9), (4, 7.98), (3, 7.98)] (
                interpolation = "faceVarying"
            )
            uniform token subdivisionScheme = "none"
        }

        def Mesh "NeonGreen" (
            prepend apiSchemas = ["MaterialBindingAPI"]
        )
        {
            float3[] extent = [(4.2, 7.9, 2.3), (5.2, 7.98, 2.4)]
            int[] faceVertexCounts = [4, 4, 4, 4, 4, 4]
            int[] faceVertexIndices = [0, 1, 2, 3, 4, 5, 6, 7, 8, 9, 10, 11, 12, 13, 14, 15, 16, 17, 18, 19, 20, 21, 22, 23]
            rel material:binding = </GalleryMixNeonStrips/Looks/NeonGreen>
            normal3f[] normals = [(-1, 0, 0), (-1, 0, 0), (-1, 0, 0), (-1, 0, 0), (1, 0, 0), (1, 0, 0), (1, 0, 0), (1, 0, 0), (0, -1, 0), (0, -1, 0), (0, -1, 0), (0, -1, 0), (0, 1, 0), (0, 1, 0), (0, 1, 0), (0, 1, 0), (0, 0, -1), (0, 0, -1), (0, 0, -1), (0, 0, -1), (0, 0, 1), (0, 0, 1), (0, 0, 1), (0, 0, 1)] (
                interpolation = "faceVarying"
            )
            point3f[] points = [(4.2, 7.9, 2.4), (4.2, 7.98, 2.4), (4.2, 7.98, 2.3), (4.2, 7.9, 2.3), (5.2, 7.9, 2.3), (5.2, 7.98, 2.3), (5.2, 7.98, 2.4), (5.2, 7.9, 2.4), (4.2, 7.9, 2.3), (5.2, 7.9, 2.3), (5.2, 7.9, 2.4), (4.2, 7.9, 2.4), (4.2, 7.98, 2.4), (5.2, 7.98, 2.4), (5.2, 7.98, 2.3), (4.2, 7.98, 2.3), (4.2, 7.98, 2.3), (5.2, 7.98, 2.3), (5.2, 7.9, 2.3), (4.2, 7.9, 2.3), (4.2, 7.9, 2.4), (5.2, 7.9, 2.4), (5.2, 7.98, 2.4), (4.2, 7.98, 2.4)]
            texCoord2f[] primvars:st = [(7.9, 2.4), (7.98, 2.4), (7.98, 2.3), (7.9, 2.3), (7.9, 2.3), (7.98, 2.3), (7.98, 2.4), (7.9, 2.4), (4.2, 2.3), (5.2, 2.3), (5.2, 2.4), (4.2, 2.4), (4.2, 2.4), (5.2, 2.4), (5.2, 2.3), (4.2, 2.3), (4.2, 7.98), (5.2, 7.98), (5.2, 7.9), (4.2, 7.9), (4.2, 7.9), (5.2, 7.9), (5.2, 7.98), (4.2, 7.98)] (
                interpolation = "faceVarying"
            )
            uniform token subdivisionScheme = "none"
        }

        def Mesh "NeonBlue" (
            prepend apiSchemas = ["MaterialBindingAPI"]
        )
        {
            float3[] extent = [(5.4, 7.9, 2.3), (6.4, 7.98, 2.4)]
            int[] faceVertexCounts = [4, 4, 4, 4, 4, 4]
            int[] faceVertexIndices = [0, 1, 2, 3, 4, 5, 6, 7, 8, 9, 10, 11, 12, 13, 14, 15, 16, 17, 18, 19, 20, 21, 22, 23]
            rel material:binding = </GalleryMixNeonStrips/Looks/NeonBlue>
            normal3f[] normals = [(-1, 0, 0), (-1, 0, 0), (-1, 0, 0), (-1, 0, 0), (1, 0, 0), (1, 0, 0), (1, 0, 0), (1, 0, 0), (0, -1, 0), (0, -1, 0), (0, -1, 0), (0, -1, 0), (0, 1, 0), (0, 1, 0), (0, 1, 0), (0, 1, 0), (0, 0, -1), (0, 0, -1), (0, 0, -1), (0, 0, -1), (0, 0, 1), (0, 0, 1), (0, 0, 1), (0, 0, 1)] (
                interpolation = "faceVarying"
            )
            point3f[] points = [(5.4, 7.9, 2.4), (5.4, 7.98, 2.4), (5.4, 7.98, 2.3), (5.4, 7.9, 2.3), (6.4, 7.9, 2.3), (6.4, 7.98, 2.3), (6.4, 7.98, 2.4), (6.4, 7.9, 2.4), (5.4, 7.9, 2.3), (6.4, 7.9, 2.3), (6.4, 7.9, 2.4), (5.4, 7.9, 2.4), (5.4, 7.98, 2.4), (6.4, 7.98, 2.4), (6.4, 7.98, 2.3), (5.4, 7.98, 2.3), (5.4, 7.98, 2.3), (6.4, 7.98, 2.3), (6.4, 7.9, 2.3), (5.4, 7.9, 2.3), (5.4, 7.9, 2.4), (6.4, 7.9, 2.4), (6.4, 7.98, 2.4), (5.4, 7.98, 2.4)]
            texCoord2f[] primvars:st = [(7.9, 2.4), (7.98, 2.4), (7.98, 2.3), (7.9, 2.3), (7.9, 2.3), (7.98, 2.3), (7.98, 2.4), (7.9, 2.4), (5.4, 2.3), (6.4, 2.3), (6.4, 2.4), (5.4, 2.4), (5.4, 2.4), (6.4, 2.4), (6.4, 2.3), (5.4, 2.3), (5.4, 7.98), (6.4, 7.98), (6.4, 7.9), (5.4, 7.9), (5.4, 7.9), (6.4, 7.9), (6.4, 7.98), (5.4, 7.98)] (
                interpolation = "faceVarying"
            )
            uniform token subdivisionScheme = "none"
        }

        def Mesh "NeonViolet" (
            prepend apiSchemas = ["MaterialBindingAPI"]
        )
        {
            float3[] extent = [(6.6, 7.9, 2.3), (7.6, 7.98, 2.4)]
            int[] faceVertexCounts = [4, 4, 4, 4, 4, 4]
            int[] faceVertexIndices = [0, 1, 2, 3, 4, 5, 6, 7, 8, 9, 10, 11, 12, 13, 14, 15, 16, 17, 18, 19, 20, 21, 22, 23]
            rel material:binding = </GalleryMixNeonStrips/Looks/NeonViolet>
            normal3f[] normals = [(-1, 0, 0), (-1, 0, 0), (-1, 0, 0), (-1, 0, 0), (1, 0, 0), (1, 0, 0), (1, 0, 0), (1, 0, 0), (0, -1, 0), (0, -1, 0), (0, -1, 0), (0, -1, 0), (0, 1, 0), (0, 1, 0), (0, 1, 0), (0, 1, 0), (0, 0, -1), (0, 0, -1), (0, 0, -1), (0, 0, -1), (0, 0, 1), (0, 0, 1), (0, 0, 1), (0, 0, 1)] (
                interpolation = "faceVarying"
            )
            point3f[] points = [(6.6, 7.9, 2.4), (6.6, 7.98, 2.4), (6.6, 7.98, 2.3), (6.6, 7.9, 2.3), (7.6, 7.9, 2.3), (7.6, 7.98, 2.3), (7.6, 7.98, 2.4), (7.6, 7.9, 2.4), (6.6, 7.9, 2.3), (7.6, 7.9, 2.3), (7.6, 7.9, 2.4), (6.6, 7.9, 2.4), (6.6, 7.98, 2.4), (7.6, 7.98, 2.4), (7.6, 7.98, 2.3), (6.6, 7.98, 2.3), (6.6, 7.98, 2.3), (7.6, 7.98, 2.3), (7.6, 7.9, 2.3), (6.6, 7.9, 2.3), (6.6, 7.9, 2.4), (7.6, 7.9, 2.4), (7.6, 7.98, 2.4), (6.6, 7.98, 2.4)]
            texCoord2f[] primvars:st = [(7.9, 2.4), (7.98, 2.4), (7.98, 2.3), (7.9, 2.3), (7.9, 2.3), (7.98, 2.3), (7.98, 2.4), (7.9, 2.4), (6.6, 2.3), (7.6, 2.3), (7.6, 2.4), (6.6, 2.4), (6.6, 2.4), (7.6, 2.4), (7.6, 2.3), (6.6, 2.3), (6.6, 7.98), (7.6, 7.98), (7.6, 7.9), (6.6, 7.9), (6.6, 7.9), (7.6, 7.9), (7.6, 7.98), (6.6, 7.98)] (
                interpolation = "faceVarying"
            )
            uniform token subdivisionScheme = "none"
        }
    }

    def Xform "Lights"
    {
    }

    def Camera "Camera"
    {
        float2 clippingRange = (0.01, 1000)
        float focalLength = 18
        float horizontalAperture = 36
        float verticalAperture = 27
        matrix4d xformOp:transform = ( (1, -0, 0, 0), (0, 0.051878099986412095, 0.9986534247384324, 0), (-0, -0.9986534247384324, 0.051878099986412095, 0), (4, 0.3, 1.6, 1) )
        uniform token[] xformOpOrder = ["xformOp:transform"]
    }
}

