#usda 1.0
(
    "RFC 0011 GI fixture GalleryComplexCityBlock; generated by tools/quality/gi_fixtures.py, do not edit"
    defaultPrim = "GalleryComplexCityBlock"
    metersPerUnit = 1
    upAxis = "Z"
)

def Xform "GalleryComplexCityBlock"
{
    def Scope "Looks"
    {
        def Material "Asphalt"
        {
            token outputs:surface.connect = </GalleryComplexCityBlock/Looks/Asphalt/Surface.outputs:surface>

            def Shader "Surface"
            {
                uniform token info:id = "UsdPreviewSurface"
                color3f inputs:diffuseColor = (0.4, 0.4, 0.4)
                color3f inputs:emissiveColor = (0, 0, 0)
                float inputs:ior = 1
                float inputs:metallic = 0
                float inputs:roughness = 1
                token outputs:surface
            }
        }

        def Material "Bldg00"
        {
            token outputs:surface.connect = </GalleryComplexCityBlock/Looks/Bldg00/Surface.outputs:surface>

            def Shader "Surface"
            {
                uniform token info:id = "UsdPreviewSurface"
                color3f inputs:diffuseColor = (0.75, 0.375, 0.375)
                color3f inputs:emissiveColor = (0, 0, 0)
                float inputs:ior = 1
                float inputs:metallic = 0
                float inputs:roughness = 1
                token outputs:surface
            }
        }

        def Material "Bldg01"
        {
            token outputs:surface.connect = </GalleryComplexCityBlock/Looks/Bldg01/Surface.outputs:surface>

            def Shader "Surface"
            {
                uniform token info:id = "UsdPreviewSurface"
                color3f inputs:diffuseColor = (0.75, 0.625, 0.375)
                color3f inputs:emissiveColor = (0, 0, 0)
                float inputs:ior = 1
                float inputs:metallic = 0
                float inputs:roughness = 1
                token outputs:surface
            }
        }

        def Material "Bldg02"
        {
            token outputs:surface.connect = </GalleryComplexCityBlock/Looks/Bldg02/Surface.outputs:surface>

            def Shader "Surface"
            {
                uniform token info:id = "UsdPreviewSurface"
                color3f inputs:diffuseColor = (0.625, 0.75, 0.375)
                color3f inputs:emissiveColor = (0, 0, 0)
                float inputs:ior = 1
                float inputs:metallic = 0
                float inputs:roughness = 1
                token outputs:surface
            }
        }

        def Material "Bldg10"
        {
            token outputs:surface.connect = </GalleryComplexCityBlock/Looks/Bldg10/Surface.outputs:surface>

            def Shader "Surface"
            {
                uniform token info:id = "UsdPreviewSurface"
                color3f inputs:diffuseColor = (0.375, 0.75, 0.375)
                color3f inputs:emissiveColor = (0, 0, 0)
                float inputs:ior = 1
                float inputs:metallic = 0
                float inputs:roughness = 1
                token outputs:surface
            }
        }

        def Material "Bldg11"
        {
            token outputs:surface.connect = </GalleryComplexCityBlock/Looks/Bldg11/Surface.outputs:surface>

            def Shader "Surface"
            {
                uniform token info:id = "UsdPreviewSurface"
                color3f inputs:diffuseColor = (0.375, 0.75, 0.625)
                color3f inputs:emissiveColor = (0, 0, 0)
                float inputs:ior = 1
                float inputs:metallic = 0
                float inputs:roughness = 1
                token outputs:surface
            }
        }

        def Material "Bldg12"
        {
            token outputs:surface.connect = </GalleryComplexCityBlock/Looks/Bldg12/Surface.outputs:surface>

            def Shader "Surface"
            {
                uniform token info:id = "UsdPreviewSurface"
                color3f inputs:diffuseColor = (0.375, 0.625, 0.75)
                color3f inputs:emissiveColor = (0, 0, 0)
                float inputs:ior = 1
                float inputs:metallic = 0
                float inputs:roughness = 1
                token outputs:surface
            }
        }

        def Material "Bldg20"
        {
            token outputs:surface.connect = </GalleryComplexCityBlock/Looks/Bldg20/Surface.outputs:surface>

            def Shader "Surface"
            {
                uniform token info:id = "UsdPreviewSurface"
                color3f inputs:diffuseColor = (0.375, 0.375, 0.75)
                color3f inputs:emissiveColor = (0, 0, 0)
                float inputs:ior = 1
                float inputs:metallic = 0
                float inputs:roughness = 1
                token outputs:surface
            }
        }

        def Material "Bldg21"
        {
            token outputs:surface.connect = </GalleryComplexCityBlock/Looks/Bldg21/Surface.outputs:surface>

            def Shader "Surface"
            {
                uniform token info:id = "UsdPreviewSurface"
                color3f inputs:diffuseColor = (0.625, 0.375, 0.75)
                color3f inputs:emissiveColor = (0, 0, 0)
                float inputs:ior = 1
                float inputs:metallic = 0
                float inputs:roughness = 1
                token outputs:surface
            }
        }

        def Material "Bldg22"
        {
            token outputs:surface.connect = </GalleryComplexCityBlock/Looks/Bldg22/Surface.outputs:surface>

            def Shader "Surface"
            {
                uniform token info:id = "UsdPreviewSurface"
                color3f inputs:diffuseColor = (0.75, 0.375, 0.625)
                color3f inputs:emissiveColor = (0, 0, 0)
                float inputs:ior = 1
                float inputs:metallic = 0
                float inputs:roughness = 1
                token outputs:surface
            }
        }
    }

    def Xform "World"
    {
        def Mesh "Ground" (
            prepend apiSchemas = ["MaterialBindingAPI"]
        )
        {
            float3[] extent = [(-20, -20, 0), (20, 20, 0)]
            int[] faceVertexCounts = [4]
            int[] faceVertexIndices = [0, 1, 2, 3]
            rel material:binding = </GalleryComplexCityBlock/Looks/Asphalt>
            normal3f[] normals = [(0, 0, 1), (0, 0, 1), (0, 0, 1), (0, 0, 1)] (
                interpolation = "faceVarying"
            )
            point3f[] points = [(-20, -20, 0), (20, -20, 0), (20, 20, 0), (-20, 20, 0)]
            texCoord2f[] primvars:st = [(-20, -20), (20, -20), (20, 20), (-20, 20)] (
                interpolation = "faceVarying"
            )
            uniform token subdivisionScheme = "none"
        }

        def Mesh "Bldg00" (
            prepend apiSchemas = ["MaterialBindingAPI"]
        )
        {
            float3[] extent = [(-8, -8, 0), (-4, -4, 6.24)]
            int[] faceVertexCounts = [4, 4, 4, 4, 4]
            int[] faceVertexIndices = [0, 1, 2, 3, 4, 5, 6, 7, 8, 9, 10, 11, 12, 13, 14, 15, 16, 17, 18, 19]
            rel material:binding = </GalleryComplexCityBlock/Looks/Bldg00>
            normal3f[] normals = [(-1, 0, 0), (-1, 0, 0), (-1, 0, 0), (-1, 0, 0), (1, 0, 0), (1, 0, 0), (1, 0, 0), (1, 0, 0), (0, -1, 0), (0, -1, 0), (0, -1, 0), (0, -1, 0), (0, 1, 0), (0, 1, 0), (0, 1, 0), (0, 1, 0), (0, 0, 1), (0, 0, 1), (0, 0, 1), (0, 0, 1)] (
                interpolation = "faceVarying"
            )
            point3f[] points = [(-8, -8, 6.24), (-8, -4, 6.24), (-8, -4, 0), (-8, -8, 0), (-4, -8, 0), (-4, -4, 0), (-4, -4, 6.24), (-4, -8, 6.24), (-8, -8, 0), (-4, -8, 0), (-4, -8, 6.24), (-8, -8, 6.24), (-8, -4, 6.24), (-4, -4, 6.24), (-4, -4, 0), (-8, -4, 0), (-8, -8, 6.24), (-4, -8, 6.24), (-4, -4, 6.24), (-8, -4, 6.24)]
            texCoord2f[] primvars:st = [(-8, 6.24), (-4, 6.24), (-4, 0), (-8, 0), (-8, 0), (-4, 0), (-4, 6.24), (-8, 6.24), (-8, 0), (-4, 0), (-4, 6.24), (-8, 6.24), (-8, 6.24), (-4, 6.24), (-4, 0), (-8, 0), (-8, -8), (-4, -8), (-4, -4), (-8, -4)] (
                interpolation = "faceVarying"
            )
            uniform token subdivisionScheme = "none"
        }

        def Mesh "Bldg01" (
            prepend apiSchemas = ["MaterialBindingAPI"]
        )
        {
            float3[] extent = [(-8, -2, 0), (-4, 2, 5.61)]
            int[] faceVertexCounts = [4, 4, 4, 4, 4]
            int[] faceVertexIndices = [0, 1, 2, 3, 4, 5, 6, 7, 8, 9, 10, 11, 12, 13, 14, 15, 16, 17, 18, 19]
            rel material:binding = </GalleryComplexCityBlock/Looks/Bldg01>
            normal3f[] normals = [(-1, 0, 0), (-1, 0, 0), (-1, 0, 0), (-1, 0, 0), (1, 0, 0), (1, 0, 0), (1, 0, 0), (1, 0, 0), (0, -1, 0), (0, -1, 0), (0, -1, 0), (0, -1, 0), (0, 1, 0), (0, 1, 0), (0, 1, 0), (0, 1, 0), (0, 0, 1), (0, 0, 1), (0, 0, 1), (0, 0, 1)] (
                interpolation = "faceVarying"
            )
            point3f[] points = [(-8, -2, 5.61), (-8, 2, 5.61), (-8, 2, 0), (-8, -2, 0), (-4, -2, 0), (-4, 2, 0), (-4, 2, 5.61), (-4, -2, 5.61), (-8, -2, 0), (-4, -2, 0), (-4, -2, 5.61), (-8, -2, 5.61), (-8, 2, 5.61), (-4, 2, 5.61), (-4, 2, 0), (-8, 2, 0), (-8, -2, 5.61), (-4, -2, 5.61), (-4, 2, 5.61), (-8, 2, 5.61)]
            texCoord2f[] primvars:st = [(-2, 5.61), (2, 5.61), (2, 0), (-2, 0), (-2, 0), (2, 0), (2, 5.61), (-2, 5.61), (-8, 0), (-4, 0), (-4, 5.61), (-8, 5.61), (-8, 5.61), (-4, 5.61), (-4, 0), (-8, 0), (-8, -2), (-4, -2), (-4, 2), (-8, 2)] (
                interpolation = "faceVarying"
            )
            uniform token subdivisionScheme = "none"
        }

        def Mesh "Bldg02" (
            prepend apiSchemas = ["MaterialBindingAPI"]
        )
        {
            float3[] extent = [(-8, 4, 0), (-4, 8, 3.97)]
            int[] faceVertexCounts = [4, 4, 4, 4, 4]
            int[] faceVertexIndices = [0, 1, 2, 3, 4, 5, 6, 7, 8, 9, 10, 11, 12, 13, 14, 15, 16, 17, 18, 19]
            rel material:binding = </GalleryComplexCityBlock/Looks/Bldg02>
            normal3f[] normals = [(-1, 0, 0), (-1, 0, 0), (-1, 0, 0), (-1, 0, 0), (1, 0, 0), (1, 0, 0), (1, 0, 0), (1, 0, 0), (0, -1, 0), (0, -1, 0), (0, -1, 0), (0, -1, 0), (0, 1, 0), (0, 1, 0), (0, 1, 0), (0, 1, 0), (0, 0, 1), (0, 0, 1), (0, 0, 1), (0, 0, 1)] (
                interpolation = "faceVarying"
            )
            point3f[] points = [(-8, 4, 3.97), (-8, 8, 3.97), (-8, 8, 0), (-8, 4, 0), (-4, 4, 0), (-4, 8, 0), (-4, 8, 3.97), (-4, 4, 3.97), (-8, 4, 0), (-4, 4, 0), (-4, 4, 3.97), (-8, 4, 3.97), (-8, 8, 3.97), (-4, 8, 3.97), (-4, 8, 0), (-8, 8, 0), (-8, 4, 3.97), (-4, 4, 3.97), (-4, 8, 3.97), (-8, 8, 3.97)]
            texCoord2f[] primvars:st = [(4, 3.97), (8, 3.97), (8, 0), (4, 0), (4, 0), (8, 0), (8, 3.97), (4, 3.97), (-8, 0), (-4, 0), (-4, 3.97), (-8, 3.97), (-8, 3.97), (-4, 3.97), (-4, 0), (-8, 0), (-8, 4), (-4, 4), (-4, 8), (-8, 8)] (
                interpolation = "faceVarying"
            )
            uniform token subdivisionScheme = "none"
        }

        def Mesh "Bldg10" (
            prepend apiSchemas = ["MaterialBindingAPI"]
        )
        {
            float3[] extent = [(-2, -8, 0), (2, -4, 9.07)]
            int[] faceVertexCounts = [4, 4, 4, 4, 4]
            int[] faceVertexIndices = [0, 1, 2, 3, 4, 5, 6, 7, 8, 9, 10, 11, 12, 13, 14, 15, 16, 17, 18, 19]
            rel material:binding = </GalleryComplexCityBlock/Looks/Bldg10>
            normal3f[] normals = [(-1, 0, 0), (-1, 0, 0), (-1, 0, 0), (-1, 0, 0), (1, 0, 0), (1, 0, 0), (1, 0, 0), (1, 0, 0), (0, -1, 0), (0, -1, 0), (0, -1, 0), (0, -1, 0), (0, 1, 0), (0, 1, 0), (0, 1, 0), (0, 1, 0), (0, 0, 1), (0, 0, 1), (0, 0, 1), (0, 0, 1)] (
                interpolation = "faceVarying"
            )
            point3f[] points = [(-2, -8, 9.07), (-2, -4, 9.07), (-2, -4, 0), (-2, -8, 0), (2, -8, 0), (2, -4, 0), (2, -4, 9.07), (2, -8, 9.07), (-2, -8, 0), (2, -8, 0), (2, -8, 9.07), (-2, -8, 9.07), (-2, -4, 9.07), (2, -4, 9.07), (2, -4, 0), (-2, -4, 0), (-2, -8, 9.07), (2, -8, 9.07), (2, -4, 9.07), (-2, -4, 9.07)]
            texCoord2f[] primvars:st = [(-8, 9.07), (-4, 9.07), (-4, 0), (-8, 0), (-8, 0), (-4, 0), (-4, 9.07), (-8, 9.07), (-2, 0), (2, 0), (2, 9.07), (-2, 9.07), (-2, 9.07), (2, 9.07), (2, 0), (-2, 0), (-2, -8), (2, -8), (2, -4), (-2, -4)] (
                interpolation = "faceVarying"
            )
            uniform token subdivisionScheme = "none"
        }

        def Mesh "Bldg11" (
            prepend apiSchemas = ["MaterialBindingAPI"]
        )
        {
            float3[] extent = [(-2, -2, 0), (2, 2, 3.05)]
            int[] faceVertexCounts = [4, 4, 4, 4, 4]
            int[] faceVertexIndices = [0, 1, 2, 3, 4, 5, 6, 7, 8, 9, 10, 11, 12, 13, 14, 15, 16, 17, 18, 19]
            rel material:binding = </GalleryComplexCityBlock/Looks/Bldg11>
            normal3f[] normals = [(-1, 0, 0), (-1, 0, 0), (-1, 0, 0), (-1, 0, 0), (1, 0, 0), (1, 0, 0), (1, 0, 0), (1, 0, 0), (0, -1, 0), (0, -1, 0), (0, -1, 0), (0, -1, 0), (0, 1, 0), (0, 1, 0), (0, 1, 0), (0, 1, 0), (0, 0, 1), (0, 0, 1), (0, 0, 1), (0, 0, 1)] (
                interpolation = "faceVarying"
            )
            point3f[] points = [(-2, -2, 3.05), (-2, 2, 3.05), (-2, 2, 0), (-2, -2, 0), (2, -2, 0), (2, 2, 0), (2, 2, 3.05), (2, -2, 3.05), (-2, -2, 0), (2, -2, 0), (2, -2, 3.05), (-2, -2, 3.05), (-2, 2, 3.05), (2, 2, 3.05), (2, 2, 0), (-2, 2, 0), (-2, -2, 3.05), (2, -2, 3.05), (2, 2, 3.05), (-2, 2, 3.05)]
            texCoord2f[] primvars:st = [(-2, 3.05), (2, 3.05), (2, 0), (-2, 0), (-2, 0), (2, 0), (2, 3.05), (-2, 3.05), (-2, 0), (2, 0), (2, 3.05), (-2, 3.05), (-2, 3.05), (2, 3.05), (2, 0), (-2, 0), (-2, -2), (2, -2), (2, 2), (-2, 2)] (
                interpolation = "faceVarying"
            )
            uniform token subdivisionScheme = "none"
        }

        def Mesh "Bldg12" (
            prepend apiSchemas = ["MaterialBindingAPI"]
        )
        {
            float3[] extent = [(-2, 4, 0), (2, 8, 6.52)]
            int[] faceVertexCounts = [4, 4, 4, 4, 4]
            int[] faceVertexIndices = [0, 1, 2, 3, 4, 5, 6, 7, 8, 9, 10, 11, 12, 13, 14, 15, 16, 17, 18, 19]
            rel material:binding = </GalleryComplexCityBlock/Looks/Bldg12>
            normal3f[] normals = [(-1, 0, 0), (-1, 0, 0), (-1, 0, 0), (-1, 0, 0), (1, 0, 0), (1, 0, 0), (1, 0, 0), (1, 0, 0), (0, -1, 0), (0, -1, 0), (0, -1, 0), (0, -1, 0), (0, 1, 0), (0, 1, 0), (0, 1, 0), (0, 1, 0), (0, 0, 1), (0, 0, 1), (0, 0, 1), (0, 0, 1)] (
                interpolation = "faceVarying"
            )
            point3f[] points = [(-2, 4, 6.52), (-2, 8, 6.52), (-2, 8, 0), (-2, 4, 0), (2, 4, 0), (2, 8, 0), (2, 8, 6.52), (2, 4, 6.52), (-2, 4, 0), (2, 4, 0), (2, 4, 6.52), (-2, 4, 6.52), (-2, 8, 6.52), (2, 8, 6.52), (2, 8, 0), (-2, 8, 0), (-2, 4, 6.52), (2, 4, 6.52), (2, 8, 6.52), (-2, 8, 6.52)]
            texCoord2f[] primvars:st = [(4, 6.52), (8, 6.52), (8, 0), (4, 0), (4, 0), (8, 0), (8, 6.52), (4, 6.52), (-2, 0), (2, 0), (2, 6.52), (-2, 6.52), (-2, 6.52), (2, 6.52), (2, 0), (-2, 0), (-2, 4), (2, 4), (2, 8), (-2, 8)] (
                interpolation = "faceVarying"
            )
            uniform token subdivisionScheme = "none"
        }

        def Mesh "Bldg20" (
            prepend apiSchemas = ["MaterialBindingAPI"]
        )
        {
            float3[] extent = [(4, -8, 0), (8, -4, 9.29)]
            int[] faceVertexCounts = [4, 4, 4, 4, 4]
            int[] faceVertexIndices = [0, 1, 2, 3, 4, 5, 6, 7, 8, 9, 10, 11, 12, 13, 14, 15, 16, 17, 18, 19]
            rel material:binding = </GalleryComplexCityBlock/Looks/Bldg20>
            normal3f[] normals = [(-1, 0, 0), (-1, 0, 0), (-1, 0, 0), (-1, 0, 0), (1, 0, 0), (1, 0, 0), (1, 0, 0), (1, 0, 0), (0, -1, 0), (0, -1, 0), (0, -1, 0), (0, -1, 0), (0, 1, 0), (0, 1, 0), (0, 1, 0), (0, 1, 0), (0, 0, 1), (0, 0, 1), (0, 0, 1), (0, 0, 1)] (
                interpolation = "faceVarying"
            )
            point3f[] points = [(4, -8, 9.29), (4, -4, 9.29), (4, -4, 0), (4, -8, 0), (8, -8, 0), (8, -4, 0), (8, -4, 9.29), (8, -8, 9.29), (4, -8, 0), (8, -8, 0), (8, -8, 9.29), (4, -8, 9.29), (4, -4, 9.29), (8, -4, 9.29), (8, -4, 0), (4, -4, 0), (4, -8, 9.29), (8, -8, 9.29), (8, -4, 9.29), (4, -4, 9.29)]
            texCoord2f[] primvars:st = [(-8, 9.29), (-4, 9.29), (-4, 0), (-8, 0), (-8, 0), (-4, 0), (-4, 9.29), (-8, 9.29), (4, 0), (8, 0), (8, 9.29), (4, 9.29), (4, 9.29), (8, 9.29), (8, 0), (4, 0), (4, -8), (8, -8), (8, -4), (4, -4)] (
                interpolation = "faceVarying"
            )
            uniform token subdivisionScheme = "none"
        }

        def Mesh "Bldg21" (
            prepend apiSchemas = ["MaterialBindingAPI"]
        )
        {
            float3[] extent = [(4, -2, 0), (8, 2, 3.57)]
            int[] faceVertexCounts = [4, 4, 4, 4, 4]
            int[] faceVertexIndices = [0, 1, 2, 3, 4, 5, 6, 7, 8, 9, 10, 11, 12, 13, 14, 15, 16, 17, 18, 19]
            rel material:binding = </GalleryComplexCityBlock/Looks/Bldg21>
            normal3f[] normals = [(-1, 0, 0), (-1, 0, 0), (-1, 0, 0), (-1, 0, 0), (1, 0, 0), (1, 0, 0), (1, 0, 0), (1, 0, 0), (0, -1, 0), (0, -1, 0), (0, -1, 0), (0, -1, 0), (0, 1, 0), (0, 1, 0), (0, 1, 0), (0, 1, 0), (0, 0, 1), (0, 0, 1), (0, 0, 1), (0, 0, 1)] (
                interpolation = "faceVarying"
            )
            point3f[] points = [(4, -2, 3.57), (4, 2, 3.57), (4, 2, 0), (4, -2, 0), (8, -2, 0), (8, 2, 0), (8, 2, 3.57), (8, -2, 3.57), (4, -2, 0), (8, -2, 0), (8, -2, 3.57), (4, -2, 3.57), (4, 2, 3.57), (8, 2, 3.57), (8, 2, 0), (4, 2, 0), (4, -2, 3.57), (8, -2, 3.57), (8, 2, 3.57), (4, 2, 3.57)]
            texCoord2f[] primvars:st = [(-2, 3.57), (2, 3.57), (2, 0), (-2, 0), (-2, 0), (2, 0), (2, 3.57), (-2, 3.57), (4, 0), (8, 0), (8, 3.57), (4, 3.57), (4, 3.57), (8, 3.57), (8, 0), (4, 0), (4, -2), (8, -2), (8, 2), (4, 2)] (
                interpolation = "faceVarying"
            )
            uniform token subdivisionScheme = "none"
        }

        def Mesh "Bldg22" (
            prepend apiSchemas = ["MaterialBindingAPI"]
        )
        {
            float3[] extent = [(4, 4, 0), (8, 8, 6.88)]
            int[] faceVertexCounts = [4, 4, 4, 4, 4]
            int[] faceVertexIndices = [0, 1, 2, 3, 4, 5, 6, 7, 8, 9, 10, 11, 12, 13, 14, 15, 16, 17, 18, 19]
            rel material:binding = </GalleryComplexCityBlock/Looks/Bldg22>
            normal3f[] normals = [(-1, 0, 0), (-1, 0, 0), (-1, 0, 0), (-1, 0, 0), (1, 0, 0), (1, 0, 0), (1, 0, 0), (1, 0, 0), (0, -1, 0), (0, -1, 0), (0, -1, 0), (0, -1, 0), (0, 1, 0), (0, 1, 0), (0, 1, 0), (0, 1, 0), (0, 0, 1), (0, 0, 1), (0, 0, 1), (0, 0, 1)] (
                interpolation = "faceVarying"
            )
            point3f[] points = [(4, 4, 6.88), (4, 8, 6.88), (4, 8, 0), (4, 4, 0), (8, 4, 0), (8, 8, 0), (8, 8, 6.88), (8, 4, 6.88), (4, 4, 0), (8, 4, 0), (8, 4, 6.88), (4, 4, 6.88), (4, 8, 6.88), (8, 8, 6.88), (8, 8, 0), (4, 8, 0), (4, 4, 6.88), (8, 4, 6.88), (8, 8, 6.88), (4, 8, 6.88)]
            texCoord2f[] primvars:st = [(4, 6.88), (8, 6.88), (8, 0), (4, 0), (4, 0), (8, 0), (8, 6.88), (4, 6.88), (4, 0), (8, 0), (8, 6.88), (4, 6.88), (4, 6.88), (8, 6.88), (8, 0), (4, 0), (4, 4), (8, 4), (8, 8), (4, 8)] (
                interpolation = "faceVarying"
            )
            uniform token subdivisionScheme = "none"
        }
    }

    def Xform "Lights"
    {
        def DistantLight "Sun"
        {
            float inputs:angle = 0.53
            color3f inputs:color = (1, 0.6, 0.3)
            float inputs:intensity = 3
            bool inputs:normalize = 1
            matrix4d xformOp:transform = ( (0.34202014332566866, -0.9396926207859084, 0, 0), (0.24321034680169396, 0.08852132690137685, 0.9659258262890683, 0), (-0.9076733711903687, -0.3303660895493521, 0.25881904510252074, 0), (0, 0, 0, 1) )
            uniform token[] xformOpOrder = ["xformOp:transform"]
        }

        def DomeLight "Sky"
        {
            color3f inputs:color = (0.3, 0.45, 0.9)
            float inputs:intensity = 0.5
        }
    }

    def Camera "Camera"
    {
        float2 clippingRange = (0.01, 1000)
        float focalLength = 18
        float horizontalAperture = 36
        float verticalAperture = 27
        matrix4d xformOp:transform = ( (1, -0, 0, 0), (0, 0.03885951548021756, 0.999244683777023, 0), (-0, -0.999244683777023, 0.03885951548021756, 0), (3, -9, 1.7, 1) )
        uniform token[] xformOpOrder = ["xformOp:transform"]
    }
}

