#usda 1.0
(
    defaultPrim = "GallerySymmetryCourtyardSun"
    metersPerUnit = 1
    subLayers = [
        @../symmetry-courtyard-sun.usda@
    ]
    upAxis = "Z"
)

over "GallerySymmetryCourtyardSun"
{
    over "Lights"
    {
        over "Sun"
        {
            matrix4d xformOp:transform = ( (-0.49999999999999994, -0.8660254037844387, 0, 0), (0.5566703992264195, -0.3213938048432696, 0.7660444431189781, 0), (-0.6634139481689385, 0.383022221559489, 0.6427876096865394, 0), (0, 0, 0, 1) )
        }
    }
}

